<mxfile host="app.diagrams.net" modified="2021-12-11T14:23:58.082Z" agent="5.0 (Windows NT 10.0; Win64; x64) AppleWebKit/537.36 (KHTML, like Gecko) Chrome/96.0.4664.93 Safari/537.36" etag="8NCit1k0dbpUOdbDY3NG" version="15.9.4" type="github">
  <diagram id="GGJGlecIptgATKQmIXUd" name="Page-1">
    <mxGraphModel dx="4531" dy="1089" grid="1" gridSize="10" guides="1" tooltips="1" connect="1" arrows="1" fold="1" page="1" pageScale="1" pageWidth="2500" pageHeight="2000" math="0" shadow="0">
      <root>
        <mxCell id="0" />
        <mxCell id="1" parent="0" />
        <mxCell id="FACWqjkW_qxCXSEoUD48-203" value="" style="rounded=0;whiteSpace=wrap;html=1;labelBorderColor=none;fontColor=#FF3333;opacity=50;" vertex="1" parent="1">
          <mxGeometry x="274" y="920" width="160" height="240" as="geometry" />
        </mxCell>
        <mxCell id="FACWqjkW_qxCXSEoUD48-193" value="" style="rounded=0;whiteSpace=wrap;html=1;labelBorderColor=none;fontColor=#FF3333;opacity=50;" vertex="1" parent="1">
          <mxGeometry x="626" y="1255" width="240" height="240" as="geometry" />
        </mxCell>
        <mxCell id="FACWqjkW_qxCXSEoUD48-191" value="" style="rounded=0;whiteSpace=wrap;html=1;labelBorderColor=none;fontColor=#FF3333;opacity=50;" vertex="1" parent="1">
          <mxGeometry x="630" y="568" width="240" height="240" as="geometry" />
        </mxCell>
        <mxCell id="FACWqjkW_qxCXSEoUD48-187" value="" style="rounded=0;whiteSpace=wrap;html=1;labelBorderColor=none;fontColor=#FF3333;opacity=50;" vertex="1" parent="1">
          <mxGeometry x="883.09" y="585" width="150" height="240" as="geometry" />
        </mxCell>
        <mxCell id="FACWqjkW_qxCXSEoUD48-188" value="" style="rounded=0;whiteSpace=wrap;html=1;labelBorderColor=none;fontColor=#FF3333;opacity=50;" vertex="1" parent="1">
          <mxGeometry x="884.58" y="338" width="150" height="240" as="geometry" />
        </mxCell>
        <mxCell id="FACWqjkW_qxCXSEoUD48-184" value="" style="rounded=0;whiteSpace=wrap;html=1;labelBorderColor=none;fontColor=#FF3333;opacity=50;" vertex="1" parent="1">
          <mxGeometry x="470.00000000000006" y="568" width="150" height="240" as="geometry" />
        </mxCell>
        <mxCell id="FACWqjkW_qxCXSEoUD48-182" value="" style="rounded=0;whiteSpace=wrap;html=1;labelBorderColor=none;fontColor=#FF3333;opacity=50;" vertex="1" parent="1">
          <mxGeometry x="460.00000000000006" y="1258" width="150" height="240" as="geometry" />
        </mxCell>
        <mxCell id="FACWqjkW_qxCXSEoUD48-177" value="" style="rounded=0;whiteSpace=wrap;html=1;labelBorderColor=none;fontColor=#FF3333;opacity=50;" vertex="1" parent="1">
          <mxGeometry x="884.59" y="1006" width="150" height="240" as="geometry" />
        </mxCell>
        <mxCell id="FACWqjkW_qxCXSEoUD48-176" value="X" style="rounded=0;whiteSpace=wrap;html=1;labelBorderColor=none;fontColor=#FF3333;opacity=50;shadow=0;" vertex="1" parent="1">
          <mxGeometry x="883.09" y="1254" width="150" height="240" as="geometry" />
        </mxCell>
        <mxCell id="FACWqjkW_qxCXSEoUD48-42" style="edgeStyle=orthogonalEdgeStyle;rounded=0;orthogonalLoop=1;jettySize=auto;html=1;fontColor=#FF3333;" edge="1" parent="1" source="FACWqjkW_qxCXSEoUD48-1" target="FACWqjkW_qxCXSEoUD48-15">
          <mxGeometry relative="1" as="geometry">
            <Array as="points">
              <mxPoint x="450" y="1040" />
              <mxPoint x="450" y="1360" />
            </Array>
          </mxGeometry>
        </mxCell>
        <mxCell id="FACWqjkW_qxCXSEoUD48-44" style="edgeStyle=orthogonalEdgeStyle;rounded=0;orthogonalLoop=1;jettySize=auto;html=1;fontColor=#FF3333;" edge="1" parent="1" source="FACWqjkW_qxCXSEoUD48-1" target="FACWqjkW_qxCXSEoUD48-43">
          <mxGeometry relative="1" as="geometry">
            <Array as="points">
              <mxPoint x="450" y="1018" />
              <mxPoint x="450" y="690" />
            </Array>
          </mxGeometry>
        </mxCell>
        <mxCell id="FACWqjkW_qxCXSEoUD48-1" value="" style="sketch=0;outlineConnect=0;fontColor=#232F3E;gradientColor=none;fillColor=#4D27AA;strokeColor=none;dashed=0;verticalLabelPosition=bottom;verticalAlign=top;align=center;html=1;fontSize=12;fontStyle=0;aspect=fixed;pointerEvents=1;shape=mxgraph.aws4.application_load_balancer;" vertex="1" parent="1">
          <mxGeometry x="320" y="1001" width="78" height="78" as="geometry" />
        </mxCell>
        <mxCell id="FACWqjkW_qxCXSEoUD48-2" value="Load Balancer" style="text;html=1;strokeColor=none;fillColor=none;align=center;verticalAlign=middle;whiteSpace=wrap;rounded=0;" vertex="1" parent="1">
          <mxGeometry x="310.75" y="1066" width="96.5" height="50" as="geometry" />
        </mxCell>
        <mxCell id="FACWqjkW_qxCXSEoUD48-49" style="edgeStyle=orthogonalEdgeStyle;rounded=0;orthogonalLoop=1;jettySize=auto;html=1;entryX=0;entryY=0.5;entryDx=0;entryDy=0;entryPerimeter=0;fontColor=#FF3333;" edge="1" parent="1" source="FACWqjkW_qxCXSEoUD48-4" target="FACWqjkW_qxCXSEoUD48-48">
          <mxGeometry relative="1" as="geometry" />
        </mxCell>
        <mxCell id="FACWqjkW_qxCXSEoUD48-4" value="" style="sketch=0;outlineConnect=0;fontColor=#232F3E;gradientColor=none;fillColor=#4D27AA;strokeColor=none;dashed=0;verticalLabelPosition=bottom;verticalAlign=top;align=center;html=1;fontSize=12;fontStyle=0;aspect=fixed;pointerEvents=1;shape=mxgraph.aws4.gateway;" vertex="1" parent="1">
          <mxGeometry x="654.25" y="651" width="76" height="78" as="geometry" />
        </mxCell>
        <mxCell id="FACWqjkW_qxCXSEoUD48-5" value="Api Gateway" style="text;html=1;strokeColor=none;fillColor=none;align=center;verticalAlign=middle;whiteSpace=wrap;rounded=0;" vertex="1" parent="1">
          <mxGeometry x="640" y="721" width="107.5" height="50" as="geometry" />
        </mxCell>
        <mxCell id="FACWqjkW_qxCXSEoUD48-54" style="edgeStyle=orthogonalEdgeStyle;rounded=0;orthogonalLoop=1;jettySize=auto;html=1;fontColor=#FF3333;" edge="1" parent="1" source="FACWqjkW_qxCXSEoUD48-6">
          <mxGeometry relative="1" as="geometry">
            <mxPoint x="770" y="1357" as="targetPoint" />
          </mxGeometry>
        </mxCell>
        <mxCell id="FACWqjkW_qxCXSEoUD48-6" value="" style="sketch=0;outlineConnect=0;fontColor=#232F3E;gradientColor=none;fillColor=#4D27AA;strokeColor=none;dashed=0;verticalLabelPosition=bottom;verticalAlign=top;align=center;html=1;fontSize=12;fontStyle=0;aspect=fixed;pointerEvents=1;shape=mxgraph.aws4.gateway;" vertex="1" parent="1">
          <mxGeometry x="654.25" y="1318" width="76" height="78" as="geometry" />
        </mxCell>
        <mxCell id="FACWqjkW_qxCXSEoUD48-7" value="Api Gateway" style="text;html=1;strokeColor=none;fillColor=none;align=center;verticalAlign=middle;whiteSpace=wrap;rounded=0;" vertex="1" parent="1">
          <mxGeometry x="638.5" y="1387" width="107.5" height="50" as="geometry" />
        </mxCell>
        <mxCell id="FACWqjkW_qxCXSEoUD48-47" style="edgeStyle=orthogonalEdgeStyle;rounded=0;orthogonalLoop=1;jettySize=auto;html=1;entryX=0.076;entryY=0.539;entryDx=0;entryDy=0;entryPerimeter=0;fontColor=#FF3333;" edge="1" parent="1" source="FACWqjkW_qxCXSEoUD48-15" target="FACWqjkW_qxCXSEoUD48-6">
          <mxGeometry relative="1" as="geometry" />
        </mxCell>
        <mxCell id="FACWqjkW_qxCXSEoUD48-15" value="" style="shape=mxgraph.cisco.directors.content_engine_(cache_director);html=1;pointerEvents=1;dashed=0;fillColor=#036897;strokeColor=#ffffff;strokeWidth=2;verticalLabelPosition=bottom;verticalAlign=top;align=center;outlineConnect=0;" vertex="1" parent="1">
          <mxGeometry x="490" y="1328" width="90" height="64" as="geometry" />
        </mxCell>
        <mxCell id="FACWqjkW_qxCXSEoUD48-16" value="Varnish" style="text;html=1;strokeColor=none;fillColor=none;align=center;verticalAlign=middle;whiteSpace=wrap;rounded=0;" vertex="1" parent="1">
          <mxGeometry x="483.5" y="1378" width="96.5" height="50" as="geometry" />
        </mxCell>
        <mxCell id="FACWqjkW_qxCXSEoUD48-37" style="edgeStyle=orthogonalEdgeStyle;rounded=0;orthogonalLoop=1;jettySize=auto;html=1;fontColor=#FF3333;" edge="1" parent="1" source="FACWqjkW_qxCXSEoUD48-22" target="FACWqjkW_qxCXSEoUD48-1">
          <mxGeometry relative="1" as="geometry" />
        </mxCell>
        <mxCell id="FACWqjkW_qxCXSEoUD48-22" value="" style="sketch=0;points=[[0,0,0],[0.25,0,0],[0.5,0,0],[0.75,0,0],[1,0,0],[0,1,0],[0.25,1,0],[0.5,1,0],[0.75,1,0],[1,1,0],[0,0.25,0],[0,0.5,0],[0,0.75,0],[1,0.25,0],[1,0.5,0],[1,0.75,0]];outlineConnect=0;fontColor=#232F3E;gradientColor=#F54749;gradientDirection=north;fillColor=#C7131F;strokeColor=#ffffff;dashed=0;verticalLabelPosition=bottom;verticalAlign=top;align=center;html=1;fontSize=12;fontStyle=0;aspect=fixed;shape=mxgraph.aws4.resourceIcon;resIcon=mxgraph.aws4.network_firewall;" vertex="1" parent="1">
          <mxGeometry x="160" y="1001" width="78" height="78" as="geometry" />
        </mxCell>
        <mxCell id="FACWqjkW_qxCXSEoUD48-25" value="" style="endArrow=none;dashed=1;html=1;rounded=0;" edge="1" parent="1">
          <mxGeometry width="50" height="50" relative="1" as="geometry">
            <mxPoint x="10" y="918" as="sourcePoint" />
            <mxPoint x="250" y="918" as="targetPoint" />
          </mxGeometry>
        </mxCell>
        <mxCell id="FACWqjkW_qxCXSEoUD48-26" value="" style="endArrow=none;dashed=1;html=1;rounded=0;" edge="1" parent="1">
          <mxGeometry width="50" height="50" relative="1" as="geometry">
            <mxPoint x="10" y="1148" as="sourcePoint" />
            <mxPoint x="250" y="1148" as="targetPoint" />
          </mxGeometry>
        </mxCell>
        <mxCell id="FACWqjkW_qxCXSEoUD48-27" value="Private&lt;br&gt;Network" style="text;html=1;strokeColor=none;fillColor=none;align=center;verticalAlign=middle;whiteSpace=wrap;rounded=0;fontColor=#FF3333;" vertex="1" parent="1">
          <mxGeometry y="788" width="96.5" height="50" as="geometry" />
        </mxCell>
        <mxCell id="FACWqjkW_qxCXSEoUD48-28" value="Public&lt;br&gt;Network" style="text;html=1;strokeColor=none;fillColor=none;align=center;verticalAlign=middle;whiteSpace=wrap;rounded=0;fontColor=#009900;" vertex="1" parent="1">
          <mxGeometry x="-10" y="1014" width="96.5" height="50" as="geometry" />
        </mxCell>
        <mxCell id="FACWqjkW_qxCXSEoUD48-30" value="" style="endArrow=classic;html=1;rounded=0;" edge="1" parent="1" target="FACWqjkW_qxCXSEoUD48-22">
          <mxGeometry relative="1" as="geometry">
            <mxPoint x="90" y="878" as="sourcePoint" />
            <mxPoint x="250" y="878" as="targetPoint" />
          </mxGeometry>
        </mxCell>
        <mxCell id="FACWqjkW_qxCXSEoUD48-31" value="VPN" style="edgeLabel;resizable=0;html=1;align=center;verticalAlign=middle;" connectable="0" vertex="1" parent="FACWqjkW_qxCXSEoUD48-30">
          <mxGeometry relative="1" as="geometry" />
        </mxCell>
        <mxCell id="FACWqjkW_qxCXSEoUD48-33" value="" style="endArrow=none;html=1;rounded=0;fontColor=#FF3333;" edge="1" parent="1">
          <mxGeometry width="50" height="50" relative="1" as="geometry">
            <mxPoint x="250" y="998" as="sourcePoint" />
            <mxPoint x="250" y="698" as="targetPoint" />
          </mxGeometry>
        </mxCell>
        <mxCell id="FACWqjkW_qxCXSEoUD48-34" value="" style="endArrow=none;html=1;rounded=0;fontColor=#FF3333;" edge="1" parent="1">
          <mxGeometry width="50" height="50" relative="1" as="geometry">
            <mxPoint x="250" y="1379" as="sourcePoint" />
            <mxPoint x="250" y="1079" as="targetPoint" />
          </mxGeometry>
        </mxCell>
        <mxCell id="FACWqjkW_qxCXSEoUD48-46" style="edgeStyle=orthogonalEdgeStyle;rounded=0;orthogonalLoop=1;jettySize=auto;html=1;fontColor=#FF3333;" edge="1" parent="1" source="FACWqjkW_qxCXSEoUD48-43" target="FACWqjkW_qxCXSEoUD48-4">
          <mxGeometry relative="1" as="geometry" />
        </mxCell>
        <mxCell id="FACWqjkW_qxCXSEoUD48-43" value="" style="shape=mxgraph.cisco.directors.content_engine_(cache_director);html=1;pointerEvents=1;dashed=0;fillColor=#036897;strokeColor=#ffffff;strokeWidth=2;verticalLabelPosition=bottom;verticalAlign=top;align=center;outlineConnect=0;" vertex="1" parent="1">
          <mxGeometry x="490" y="658" width="90" height="64" as="geometry" />
        </mxCell>
        <mxCell id="FACWqjkW_qxCXSEoUD48-45" value="Varnish" style="text;html=1;strokeColor=none;fillColor=none;align=center;verticalAlign=middle;whiteSpace=wrap;rounded=0;" vertex="1" parent="1">
          <mxGeometry x="483.5" y="708" width="96.5" height="50" as="geometry" />
        </mxCell>
        <mxCell id="FACWqjkW_qxCXSEoUD48-63" style="edgeStyle=orthogonalEdgeStyle;rounded=0;orthogonalLoop=1;jettySize=auto;html=1;fontColor=#FF3333;" edge="1" parent="1" source="FACWqjkW_qxCXSEoUD48-48" target="FACWqjkW_qxCXSEoUD48-58">
          <mxGeometry relative="1" as="geometry" />
        </mxCell>
        <mxCell id="FACWqjkW_qxCXSEoUD48-72" style="edgeStyle=orthogonalEdgeStyle;orthogonalLoop=1;jettySize=auto;html=1;entryX=0.002;entryY=0.55;entryDx=0;entryDy=0;entryPerimeter=0;fontColor=#FF3333;textOpacity=50;opacity=50;rounded=0;strokeColor=default;dashed=1;" edge="1" parent="1" source="FACWqjkW_qxCXSEoUD48-48" target="FACWqjkW_qxCXSEoUD48-70">
          <mxGeometry relative="1" as="geometry">
            <Array as="points">
              <mxPoint x="809" y="470" />
            </Array>
          </mxGeometry>
        </mxCell>
        <mxCell id="FACWqjkW_qxCXSEoUD48-48" value="" style="sketch=0;outlineConnect=0;fontColor=#232F3E;gradientColor=none;fillColor=#4D27AA;strokeColor=none;dashed=0;verticalLabelPosition=bottom;verticalAlign=top;align=center;html=1;fontSize=12;fontStyle=0;aspect=fixed;pointerEvents=1;shape=mxgraph.aws4.application_load_balancer;" vertex="1" parent="1">
          <mxGeometry x="770" y="651" width="78" height="78" as="geometry" />
        </mxCell>
        <mxCell id="FACWqjkW_qxCXSEoUD48-50" value="Load Balancer" style="text;html=1;strokeColor=none;fillColor=none;align=center;verticalAlign=middle;whiteSpace=wrap;rounded=0;" vertex="1" parent="1">
          <mxGeometry x="761" y="721" width="96.5" height="50" as="geometry" />
        </mxCell>
        <mxCell id="FACWqjkW_qxCXSEoUD48-77" style="edgeStyle=orthogonalEdgeStyle;rounded=0;orthogonalLoop=1;jettySize=auto;html=1;entryX=-0.01;entryY=0.448;entryDx=0;entryDy=0;entryPerimeter=0;dashed=1;fontColor=#FF3333;strokeColor=default;opacity=50;" edge="1" parent="1" source="FACWqjkW_qxCXSEoUD48-58">
          <mxGeometry relative="1" as="geometry">
            <mxPoint x="1046.6000000000004" y="690.1199999999999" as="targetPoint" />
          </mxGeometry>
        </mxCell>
        <mxCell id="FACWqjkW_qxCXSEoUD48-78" style="edgeStyle=orthogonalEdgeStyle;rounded=0;orthogonalLoop=1;jettySize=auto;html=1;entryX=0;entryY=0.75;entryDx=0;entryDy=0;dashed=1;fontColor=#FF3333;strokeColor=default;" edge="1" parent="1" source="FACWqjkW_qxCXSEoUD48-58">
          <mxGeometry relative="1" as="geometry">
            <mxPoint x="1050" y="549.5" as="targetPoint" />
            <Array as="points">
              <mxPoint x="958" y="542" />
            </Array>
          </mxGeometry>
        </mxCell>
        <mxCell id="FACWqjkW_qxCXSEoUD48-79" style="edgeStyle=orthogonalEdgeStyle;rounded=0;orthogonalLoop=1;jettySize=auto;html=1;entryX=-0.003;entryY=0.409;entryDx=0;entryDy=0;entryPerimeter=0;dashed=1;fontColor=#FF3333;strokeColor=default;" edge="1" parent="1" source="FACWqjkW_qxCXSEoUD48-58">
          <mxGeometry relative="1" as="geometry">
            <mxPoint x="1048.98" y="887.7099999999998" as="targetPoint" />
            <Array as="points">
              <mxPoint x="958" y="888" />
            </Array>
          </mxGeometry>
        </mxCell>
        <mxCell id="FACWqjkW_qxCXSEoUD48-58" value="" style="sketch=0;html=1;dashed=0;whitespace=wrap;fillColor=#2875E2;strokeColor=#ffffff;points=[[0.005,0.63,0],[0.1,0.2,0],[0.9,0.2,0],[0.5,0,0],[0.995,0.63,0],[0.72,0.99,0],[0.5,1,0],[0.28,0.99,0]];shape=mxgraph.kubernetes.icon;prIcon=master;labelBorderColor=none;fontColor=#FF3333;" vertex="1" parent="1">
          <mxGeometry x="906" y="640" width="104.17" height="100" as="geometry" />
        </mxCell>
        <mxCell id="FACWqjkW_qxCXSEoUD48-59" value="Kubernetes Master" style="text;html=1;strokeColor=none;fillColor=none;align=center;verticalAlign=middle;whiteSpace=wrap;rounded=0;" vertex="1" parent="1">
          <mxGeometry x="909.84" y="729" width="96.5" height="50" as="geometry" />
        </mxCell>
        <mxCell id="FACWqjkW_qxCXSEoUD48-70" value="" style="sketch=0;html=1;dashed=0;whitespace=wrap;fillColor=#2875E2;strokeColor=#ffffff;points=[[0.005,0.63,0],[0.1,0.2,0],[0.9,0.2,0],[0.5,0,0],[0.995,0.63,0],[0.72,0.99,0],[0.5,1,0],[0.28,0.99,0]];shape=mxgraph.kubernetes.icon;prIcon=master;labelBorderColor=none;fontColor=#FF3333;opacity=50;textOpacity=50;" vertex="1" parent="1">
          <mxGeometry x="909.84" y="415" width="104.17" height="100" as="geometry" />
        </mxCell>
        <mxCell id="FACWqjkW_qxCXSEoUD48-71" value="Kubernetes Master" style="text;html=1;strokeColor=none;fillColor=none;align=center;verticalAlign=middle;whiteSpace=wrap;rounded=0;opacity=50;textOpacity=50;" vertex="1" parent="1">
          <mxGeometry x="917.51" y="365" width="96.5" height="50" as="geometry" />
        </mxCell>
        <mxCell id="FACWqjkW_qxCXSEoUD48-430" style="edgeStyle=orthogonalEdgeStyle;rounded=0;jumpStyle=none;orthogonalLoop=1;jettySize=auto;html=1;exitX=1;exitY=0.5;exitDx=0;exitDy=0;dashed=1;fontSize=8;fontColor=#990000;strokeColor=default;entryX=0;entryY=0.5;entryDx=0;entryDy=0;startArrow=classic;startFill=1;" edge="1" parent="1" source="FACWqjkW_qxCXSEoUD48-109" target="FACWqjkW_qxCXSEoUD48-428">
          <mxGeometry relative="1" as="geometry">
            <mxPoint x="1430" y="905.75" as="targetPoint" />
          </mxGeometry>
        </mxCell>
        <mxCell id="FACWqjkW_qxCXSEoUD48-109" value="" style="rounded=0;whiteSpace=wrap;html=1;labelBorderColor=none;fontColor=#FF3333;opacity=50;" vertex="1" parent="1">
          <mxGeometry x="1050" y="811" width="340" height="190" as="geometry" />
        </mxCell>
        <mxCell id="FACWqjkW_qxCXSEoUD48-110" value="Kubernetes Worker 3" style="text;html=1;strokeColor=none;fillColor=none;align=center;verticalAlign=middle;whiteSpace=wrap;rounded=0;" vertex="1" parent="1">
          <mxGeometry x="1050" y="811" width="130" height="25" as="geometry" />
        </mxCell>
        <mxCell id="FACWqjkW_qxCXSEoUD48-111" value="" style="shape=image;html=1;verticalAlign=top;verticalLabelPosition=bottom;labelBackgroundColor=#ffffff;imageAspect=0;aspect=fixed;image=https://cdn1.iconfinder.com/data/icons/unicons-line-vol-3/24/docker-128.png;labelBorderColor=none;fontColor=#FF3333;opacity=50;" vertex="1" parent="1">
          <mxGeometry x="1070" y="833" width="60" height="60" as="geometry" />
        </mxCell>
        <mxCell id="FACWqjkW_qxCXSEoUD48-112" value="" style="shape=image;html=1;verticalAlign=top;verticalLabelPosition=bottom;labelBackgroundColor=#ffffff;imageAspect=0;aspect=fixed;image=https://cdn1.iconfinder.com/data/icons/unicons-line-vol-3/24/docker-128.png;labelBorderColor=none;fontColor=#FF3333;opacity=50;" vertex="1" parent="1">
          <mxGeometry x="1190" y="818" width="60" height="60" as="geometry" />
        </mxCell>
        <mxCell id="FACWqjkW_qxCXSEoUD48-214" style="edgeStyle=orthogonalEdgeStyle;rounded=0;orthogonalLoop=1;jettySize=auto;html=1;entryX=1;entryY=0.5;entryDx=0;entryDy=0;dashed=1;fontColor=#990000;strokeColor=default;jumpStyle=none;" edge="1" parent="1" source="FACWqjkW_qxCXSEoUD48-113" target="FACWqjkW_qxCXSEoUD48-115">
          <mxGeometry relative="1" as="geometry" />
        </mxCell>
        <mxCell id="FACWqjkW_qxCXSEoUD48-222" value="&lt;font style=&quot;font-size: 8px&quot;&gt;Http Request&lt;/font&gt;" style="edgeLabel;html=1;align=center;verticalAlign=middle;resizable=0;points=[];fontColor=#990000;" vertex="1" connectable="0" parent="FACWqjkW_qxCXSEoUD48-214">
          <mxGeometry x="-0.2493" relative="1" as="geometry">
            <mxPoint as="offset" />
          </mxGeometry>
        </mxCell>
        <mxCell id="FACWqjkW_qxCXSEoUD48-113" value="" style="shape=image;html=1;verticalAlign=top;verticalLabelPosition=bottom;labelBackgroundColor=#ffffff;imageAspect=0;aspect=fixed;image=https://cdn1.iconfinder.com/data/icons/unicons-line-vol-3/24/docker-128.png;labelBorderColor=none;fontColor=#FF3333;opacity=50;" vertex="1" parent="1">
          <mxGeometry x="1310" y="827" width="60" height="60" as="geometry" />
        </mxCell>
        <mxCell id="FACWqjkW_qxCXSEoUD48-114" value="" style="shape=image;html=1;verticalAlign=top;verticalLabelPosition=bottom;labelBackgroundColor=#ffffff;imageAspect=0;aspect=fixed;image=https://cdn1.iconfinder.com/data/icons/unicons-line-vol-3/24/docker-128.png;labelBorderColor=none;fontColor=#FF3333;opacity=50;" vertex="1" parent="1">
          <mxGeometry x="1070" y="918" width="60" height="60" as="geometry" />
        </mxCell>
        <mxCell id="FACWqjkW_qxCXSEoUD48-115" value="" style="shape=image;html=1;verticalAlign=top;verticalLabelPosition=bottom;labelBackgroundColor=#ffffff;imageAspect=0;aspect=fixed;image=https://cdn1.iconfinder.com/data/icons/unicons-line-vol-3/24/docker-128.png;labelBorderColor=none;fontColor=#FF3333;opacity=50;" vertex="1" parent="1">
          <mxGeometry x="1190" y="920" width="53" height="53" as="geometry" />
        </mxCell>
        <mxCell id="FACWqjkW_qxCXSEoUD48-116" value="" style="shape=image;html=1;verticalAlign=top;verticalLabelPosition=bottom;labelBackgroundColor=#ffffff;imageAspect=0;aspect=fixed;image=https://cdn1.iconfinder.com/data/icons/unicons-line-vol-3/24/docker-128.png;labelBorderColor=none;fontColor=#FF3333;opacity=50;" vertex="1" parent="1">
          <mxGeometry x="1310" y="913" width="60" height="60" as="geometry" />
        </mxCell>
        <mxCell id="FACWqjkW_qxCXSEoUD48-216" style="edgeStyle=orthogonalEdgeStyle;rounded=0;orthogonalLoop=1;jettySize=auto;html=1;entryX=0;entryY=0.5;entryDx=0;entryDy=0;dashed=1;fontColor=#990000;strokeColor=default;" edge="1" parent="1" source="FACWqjkW_qxCXSEoUD48-117" target="FACWqjkW_qxCXSEoUD48-115">
          <mxGeometry relative="1" as="geometry" />
        </mxCell>
        <mxCell id="FACWqjkW_qxCXSEoUD48-225" value="Http Request" style="edgeLabel;html=1;align=center;verticalAlign=middle;resizable=0;points=[];fontSize=8;fontColor=#990000;" vertex="1" connectable="0" parent="FACWqjkW_qxCXSEoUD48-216">
          <mxGeometry x="-0.3455" y="-1" relative="1" as="geometry">
            <mxPoint y="10" as="offset" />
          </mxGeometry>
        </mxCell>
        <mxCell id="FACWqjkW_qxCXSEoUD48-117" value="A Service" style="text;html=1;strokeColor=none;fillColor=none;align=center;verticalAlign=middle;whiteSpace=wrap;rounded=0;" vertex="1" parent="1">
          <mxGeometry x="1070" y="884.5" width="60" height="25" as="geometry" />
        </mxCell>
        <mxCell id="FACWqjkW_qxCXSEoUD48-220" style="edgeStyle=orthogonalEdgeStyle;rounded=0;orthogonalLoop=1;jettySize=auto;html=1;entryX=0.566;entryY=0.189;entryDx=0;entryDy=0;entryPerimeter=0;dashed=1;fontColor=#990000;strokeColor=default;" edge="1" parent="1" source="FACWqjkW_qxCXSEoUD48-118" target="FACWqjkW_qxCXSEoUD48-115">
          <mxGeometry relative="1" as="geometry" />
        </mxCell>
        <mxCell id="FACWqjkW_qxCXSEoUD48-118" value="B Service" style="text;html=1;strokeColor=none;fillColor=none;align=center;verticalAlign=middle;whiteSpace=wrap;rounded=0;" vertex="1" parent="1">
          <mxGeometry x="1190" y="868" width="60" height="25" as="geometry" />
        </mxCell>
        <mxCell id="FACWqjkW_qxCXSEoUD48-119" value="C Service" style="text;html=1;strokeColor=none;fillColor=none;align=center;verticalAlign=middle;whiteSpace=wrap;rounded=0;" vertex="1" parent="1">
          <mxGeometry x="1310" y="884.5" width="60" height="25" as="geometry" />
        </mxCell>
        <mxCell id="FACWqjkW_qxCXSEoUD48-218" style="edgeStyle=orthogonalEdgeStyle;rounded=0;orthogonalLoop=1;jettySize=auto;html=1;dashed=1;fontColor=#990000;strokeColor=default;" edge="1" parent="1" source="FACWqjkW_qxCXSEoUD48-120" target="FACWqjkW_qxCXSEoUD48-121">
          <mxGeometry relative="1" as="geometry" />
        </mxCell>
        <mxCell id="FACWqjkW_qxCXSEoUD48-224" value="Http Request" style="edgeLabel;html=1;align=center;verticalAlign=middle;resizable=0;points=[];fontSize=8;fontColor=#990000;" vertex="1" connectable="0" parent="FACWqjkW_qxCXSEoUD48-218">
          <mxGeometry x="-0.3091" relative="1" as="geometry">
            <mxPoint y="-12" as="offset" />
          </mxGeometry>
        </mxCell>
        <mxCell id="FACWqjkW_qxCXSEoUD48-120" value="D Service" style="text;html=1;strokeColor=none;fillColor=none;align=center;verticalAlign=middle;whiteSpace=wrap;rounded=0;" vertex="1" parent="1">
          <mxGeometry x="1070" y="967" width="60" height="25" as="geometry" />
        </mxCell>
        <mxCell id="FACWqjkW_qxCXSEoUD48-121" value="E Service" style="text;html=1;strokeColor=none;fillColor=none;align=center;verticalAlign=middle;whiteSpace=wrap;rounded=0;" vertex="1" parent="1">
          <mxGeometry x="1190" y="967" width="60" height="25" as="geometry" />
        </mxCell>
        <mxCell id="FACWqjkW_qxCXSEoUD48-221" style="edgeStyle=orthogonalEdgeStyle;rounded=0;orthogonalLoop=1;jettySize=auto;html=1;entryX=1;entryY=0.5;entryDx=0;entryDy=0;dashed=1;fontColor=#990000;strokeColor=default;" edge="1" parent="1" source="FACWqjkW_qxCXSEoUD48-122" target="FACWqjkW_qxCXSEoUD48-121">
          <mxGeometry relative="1" as="geometry" />
        </mxCell>
        <mxCell id="FACWqjkW_qxCXSEoUD48-223" value="Http Request" style="edgeLabel;html=1;align=center;verticalAlign=middle;resizable=0;points=[];fontSize=8;fontColor=#990000;" vertex="1" connectable="0" parent="FACWqjkW_qxCXSEoUD48-221">
          <mxGeometry x="-0.2768" y="1" relative="1" as="geometry">
            <mxPoint y="-13" as="offset" />
          </mxGeometry>
        </mxCell>
        <mxCell id="FACWqjkW_qxCXSEoUD48-122" value="F Service" style="text;html=1;strokeColor=none;fillColor=none;align=center;verticalAlign=middle;whiteSpace=wrap;rounded=0;" vertex="1" parent="1">
          <mxGeometry x="1310" y="967" width="60" height="25" as="geometry" />
        </mxCell>
        <mxCell id="FACWqjkW_qxCXSEoUD48-123" style="edgeStyle=orthogonalEdgeStyle;rounded=0;orthogonalLoop=1;jettySize=auto;html=1;fontColor=#FF3333;" edge="1" parent="1" source="FACWqjkW_qxCXSEoUD48-125" target="FACWqjkW_qxCXSEoUD48-130">
          <mxGeometry relative="1" as="geometry" />
        </mxCell>
        <mxCell id="FACWqjkW_qxCXSEoUD48-124" style="edgeStyle=orthogonalEdgeStyle;orthogonalLoop=1;jettySize=auto;html=1;entryX=0.002;entryY=0.55;entryDx=0;entryDy=0;entryPerimeter=0;fontColor=#FF3333;textOpacity=50;opacity=50;rounded=0;strokeColor=default;dashed=1;" edge="1" parent="1" source="FACWqjkW_qxCXSEoUD48-125" target="FACWqjkW_qxCXSEoUD48-132">
          <mxGeometry relative="1" as="geometry">
            <Array as="points">
              <mxPoint x="810" y="1145" />
            </Array>
          </mxGeometry>
        </mxCell>
        <mxCell id="FACWqjkW_qxCXSEoUD48-125" value="" style="sketch=0;outlineConnect=0;fontColor=#232F3E;gradientColor=none;fillColor=#4D27AA;strokeColor=none;dashed=0;verticalLabelPosition=bottom;verticalAlign=top;align=center;html=1;fontSize=12;fontStyle=0;aspect=fixed;pointerEvents=1;shape=mxgraph.aws4.application_load_balancer;" vertex="1" parent="1">
          <mxGeometry x="771.5" y="1319" width="78" height="78" as="geometry" />
        </mxCell>
        <mxCell id="FACWqjkW_qxCXSEoUD48-126" value="Load Balancer" style="text;html=1;strokeColor=none;fillColor=none;align=center;verticalAlign=middle;whiteSpace=wrap;rounded=0;" vertex="1" parent="1">
          <mxGeometry x="762.5" y="1389" width="96.5" height="50" as="geometry" />
        </mxCell>
        <mxCell id="FACWqjkW_qxCXSEoUD48-127" style="edgeStyle=orthogonalEdgeStyle;rounded=0;orthogonalLoop=1;jettySize=auto;html=1;entryX=-0.01;entryY=0.448;entryDx=0;entryDy=0;entryPerimeter=0;dashed=1;fontColor=#FF3333;strokeColor=default;opacity=50;" edge="1" parent="1" source="FACWqjkW_qxCXSEoUD48-130">
          <mxGeometry relative="1" as="geometry">
            <mxPoint x="1048.1000000000004" y="1358.12" as="targetPoint" />
          </mxGeometry>
        </mxCell>
        <mxCell id="FACWqjkW_qxCXSEoUD48-129" style="edgeStyle=orthogonalEdgeStyle;rounded=0;orthogonalLoop=1;jettySize=auto;html=1;entryX=-0.003;entryY=0.409;entryDx=0;entryDy=0;entryPerimeter=0;dashed=1;fontColor=#FF3333;strokeColor=default;" edge="1" parent="1" source="FACWqjkW_qxCXSEoUD48-130">
          <mxGeometry relative="1" as="geometry">
            <mxPoint x="1050.4799999999996" y="1555.71" as="targetPoint" />
            <Array as="points">
              <mxPoint x="959.5" y="1556" />
            </Array>
          </mxGeometry>
        </mxCell>
        <mxCell id="FACWqjkW_qxCXSEoUD48-427" style="edgeStyle=orthogonalEdgeStyle;rounded=0;jumpStyle=none;orthogonalLoop=1;jettySize=auto;html=1;entryX=0;entryY=0.75;entryDx=0;entryDy=0;dashed=1;fontSize=8;fontColor=#990000;strokeColor=default;" edge="1" parent="1" source="FACWqjkW_qxCXSEoUD48-130" target="FACWqjkW_qxCXSEoUD48-402">
          <mxGeometry relative="1" as="geometry">
            <Array as="points">
              <mxPoint x="960" y="1205" />
            </Array>
          </mxGeometry>
        </mxCell>
        <mxCell id="FACWqjkW_qxCXSEoUD48-130" value="" style="sketch=0;html=1;dashed=0;whitespace=wrap;fillColor=#2875E2;strokeColor=#ffffff;points=[[0.005,0.63,0],[0.1,0.2,0],[0.9,0.2,0],[0.5,0,0],[0.995,0.63,0],[0.72,0.99,0],[0.5,1,0],[0.28,0.99,0]];shape=mxgraph.kubernetes.icon;prIcon=master;labelBorderColor=none;fontColor=#FF3333;" vertex="1" parent="1">
          <mxGeometry x="907.5" y="1308" width="104.17" height="100" as="geometry" />
        </mxCell>
        <mxCell id="FACWqjkW_qxCXSEoUD48-131" value="Kubernetes Master" style="text;html=1;strokeColor=none;fillColor=none;align=center;verticalAlign=middle;whiteSpace=wrap;rounded=0;" vertex="1" parent="1">
          <mxGeometry x="911.34" y="1397" width="96.5" height="50" as="geometry" />
        </mxCell>
        <mxCell id="FACWqjkW_qxCXSEoUD48-132" value="" style="sketch=0;html=1;dashed=0;whitespace=wrap;fillColor=#2875E2;strokeColor=#ffffff;points=[[0.005,0.63,0],[0.1,0.2,0],[0.9,0.2,0],[0.5,0,0],[0.995,0.63,0],[0.72,0.99,0],[0.5,1,0],[0.28,0.99,0]];shape=mxgraph.kubernetes.icon;prIcon=master;labelBorderColor=none;fontColor=#FF3333;opacity=50;textOpacity=50;" vertex="1" parent="1">
          <mxGeometry x="906.01" y="1090" width="104.17" height="100" as="geometry" />
        </mxCell>
        <mxCell id="FACWqjkW_qxCXSEoUD48-133" value="Kubernetes Master" style="text;html=1;strokeColor=none;fillColor=none;align=center;verticalAlign=middle;whiteSpace=wrap;rounded=0;opacity=50;textOpacity=50;" vertex="1" parent="1">
          <mxGeometry x="911.33" y="1040" width="96.5" height="50" as="geometry" />
        </mxCell>
        <mxCell id="FACWqjkW_qxCXSEoUD48-180" value="&lt;b&gt;&lt;font color=&quot;#990000&quot;&gt;Cluster&lt;/font&gt;&lt;/b&gt;" style="text;html=1;strokeColor=none;fillColor=none;align=left;verticalAlign=middle;whiteSpace=wrap;rounded=0;" vertex="1" parent="1">
          <mxGeometry x="887.59" y="1009" width="65.41" height="14" as="geometry" />
        </mxCell>
        <mxCell id="FACWqjkW_qxCXSEoUD48-181" value="&lt;b&gt;&lt;font color=&quot;#990000&quot;&gt;Cluster&lt;/font&gt;&lt;/b&gt;" style="text;html=1;strokeColor=none;fillColor=none;align=left;verticalAlign=middle;whiteSpace=wrap;rounded=0;" vertex="1" parent="1">
          <mxGeometry x="887.59" y="1258" width="65.41" height="14" as="geometry" />
        </mxCell>
        <mxCell id="FACWqjkW_qxCXSEoUD48-183" value="&lt;b&gt;&lt;font color=&quot;#990000&quot;&gt;Cluster&lt;br&gt;&lt;/font&gt;&lt;/b&gt;" style="text;html=1;strokeColor=none;fillColor=none;align=left;verticalAlign=middle;whiteSpace=wrap;rounded=0;" vertex="1" parent="1">
          <mxGeometry x="470.00000000000006" y="1265" width="65.41" height="14" as="geometry" />
        </mxCell>
        <mxCell id="FACWqjkW_qxCXSEoUD48-185" value="&lt;b&gt;&lt;font color=&quot;#990000&quot;&gt;Cluster&lt;/font&gt;&lt;/b&gt;" style="text;html=1;strokeColor=none;fillColor=none;align=left;verticalAlign=middle;whiteSpace=wrap;rounded=0;" vertex="1" parent="1">
          <mxGeometry x="479.00000000000006" y="574" width="65.41" height="14" as="geometry" />
        </mxCell>
        <mxCell id="FACWqjkW_qxCXSEoUD48-189" value="&lt;b&gt;&lt;font color=&quot;#990000&quot;&gt;Cluster&lt;/font&gt;&lt;/b&gt;" style="text;html=1;strokeColor=none;fillColor=none;align=left;verticalAlign=middle;whiteSpace=wrap;rounded=0;" vertex="1" parent="1">
          <mxGeometry x="889.59" y="346" width="65.41" height="14" as="geometry" />
        </mxCell>
        <mxCell id="FACWqjkW_qxCXSEoUD48-190" value="&lt;b&gt;&lt;font color=&quot;#990000&quot;&gt;Cluster&lt;/font&gt;&lt;/b&gt;" style="text;html=1;strokeColor=none;fillColor=none;align=left;verticalAlign=middle;whiteSpace=wrap;rounded=0;" vertex="1" parent="1">
          <mxGeometry x="889.59" y="596" width="65.41" height="14" as="geometry" />
        </mxCell>
        <mxCell id="FACWqjkW_qxCXSEoUD48-192" value="&lt;b&gt;&lt;font color=&quot;#990000&quot;&gt;Cluster&lt;/font&gt;&lt;/b&gt;" style="text;html=1;strokeColor=none;fillColor=none;align=left;verticalAlign=middle;whiteSpace=wrap;rounded=0;" vertex="1" parent="1">
          <mxGeometry x="640" y="578" width="65.41" height="14" as="geometry" />
        </mxCell>
        <mxCell id="FACWqjkW_qxCXSEoUD48-194" value="&lt;b&gt;&lt;font color=&quot;#990000&quot;&gt;Cluster&lt;/font&gt;&lt;/b&gt;" style="text;html=1;strokeColor=none;fillColor=none;align=left;verticalAlign=middle;whiteSpace=wrap;rounded=0;" vertex="1" parent="1">
          <mxGeometry x="638.5" y="1265" width="65.41" height="14" as="geometry" />
        </mxCell>
        <mxCell id="FACWqjkW_qxCXSEoUD48-195" value="" style="endArrow=classic;html=1;rounded=0;dashed=1;fontColor=#990000;strokeColor=default;entryX=0;entryY=0.5;entryDx=0;entryDy=0;entryPerimeter=0;" edge="1" parent="1" target="FACWqjkW_qxCXSEoUD48-22">
          <mxGeometry width="50" height="50" relative="1" as="geometry">
            <mxPoint x="80" y="1040" as="sourcePoint" />
            <mxPoint x="110" y="1023" as="targetPoint" />
          </mxGeometry>
        </mxCell>
        <mxCell id="FACWqjkW_qxCXSEoUD48-199" value="&lt;b&gt;&lt;font color=&quot;#990000&quot;&gt;Cluster&lt;/font&gt;&lt;/b&gt;" style="text;html=1;strokeColor=none;fillColor=none;align=left;verticalAlign=middle;whiteSpace=wrap;rounded=0;" vertex="1" parent="1">
          <mxGeometry x="1311.5" y="818" width="65.41" height="14" as="geometry" />
        </mxCell>
        <mxCell id="FACWqjkW_qxCXSEoUD48-204" value="&lt;b&gt;&lt;font color=&quot;#990000&quot;&gt;Cluster&lt;/font&gt;&lt;/b&gt;" style="text;html=1;strokeColor=none;fillColor=none;align=left;verticalAlign=middle;whiteSpace=wrap;rounded=0;" vertex="1" parent="1">
          <mxGeometry x="281.00000000000006" y="928" width="65.41" height="14" as="geometry" />
        </mxCell>
        <mxCell id="FACWqjkW_qxCXSEoUD48-226" value="Http Request" style="edgeLabel;html=1;align=center;verticalAlign=middle;resizable=0;points=[];fontSize=8;fontColor=#990000;" vertex="1" connectable="0" parent="1">
          <mxGeometry x="1221.500000000001" y="905.9978787878783" as="geometry" />
        </mxCell>
        <mxCell id="FACWqjkW_qxCXSEoUD48-432" style="edgeStyle=orthogonalEdgeStyle;rounded=0;jumpStyle=none;orthogonalLoop=1;jettySize=auto;html=1;dashed=1;fontSize=8;fontColor=#990000;strokeColor=default;startArrow=classic;startFill=1;" edge="1" parent="1" source="FACWqjkW_qxCXSEoUD48-227">
          <mxGeometry relative="1" as="geometry">
            <mxPoint x="1540" y="990" as="targetPoint" />
          </mxGeometry>
        </mxCell>
        <mxCell id="FACWqjkW_qxCXSEoUD48-227" value="" style="rounded=0;whiteSpace=wrap;html=1;labelBorderColor=none;fontColor=#FF3333;opacity=50;" vertex="1" parent="1">
          <mxGeometry x="1050" y="610" width="340" height="190" as="geometry" />
        </mxCell>
        <mxCell id="FACWqjkW_qxCXSEoUD48-228" value="Kubernetes Worker 3" style="text;html=1;strokeColor=none;fillColor=none;align=center;verticalAlign=middle;whiteSpace=wrap;rounded=0;" vertex="1" parent="1">
          <mxGeometry x="1050" y="610" width="130" height="25" as="geometry" />
        </mxCell>
        <mxCell id="FACWqjkW_qxCXSEoUD48-229" value="" style="shape=image;html=1;verticalAlign=top;verticalLabelPosition=bottom;labelBackgroundColor=#ffffff;imageAspect=0;aspect=fixed;image=https://cdn1.iconfinder.com/data/icons/unicons-line-vol-3/24/docker-128.png;labelBorderColor=none;fontColor=#FF3333;opacity=50;" vertex="1" parent="1">
          <mxGeometry x="1070" y="632" width="60" height="60" as="geometry" />
        </mxCell>
        <mxCell id="FACWqjkW_qxCXSEoUD48-230" value="" style="shape=image;html=1;verticalAlign=top;verticalLabelPosition=bottom;labelBackgroundColor=#ffffff;imageAspect=0;aspect=fixed;image=https://cdn1.iconfinder.com/data/icons/unicons-line-vol-3/24/docker-128.png;labelBorderColor=none;fontColor=#FF3333;opacity=50;" vertex="1" parent="1">
          <mxGeometry x="1190" y="617" width="60" height="60" as="geometry" />
        </mxCell>
        <mxCell id="FACWqjkW_qxCXSEoUD48-231" style="edgeStyle=orthogonalEdgeStyle;rounded=0;orthogonalLoop=1;jettySize=auto;html=1;entryX=1;entryY=0.5;entryDx=0;entryDy=0;dashed=1;fontColor=#990000;strokeColor=default;jumpStyle=none;" edge="1" parent="1" source="FACWqjkW_qxCXSEoUD48-233" target="FACWqjkW_qxCXSEoUD48-235">
          <mxGeometry relative="1" as="geometry" />
        </mxCell>
        <mxCell id="FACWqjkW_qxCXSEoUD48-232" value="&lt;font style=&quot;font-size: 8px&quot;&gt;Http Request&lt;/font&gt;" style="edgeLabel;html=1;align=center;verticalAlign=middle;resizable=0;points=[];fontColor=#990000;" vertex="1" connectable="0" parent="FACWqjkW_qxCXSEoUD48-231">
          <mxGeometry x="-0.2493" relative="1" as="geometry">
            <mxPoint as="offset" />
          </mxGeometry>
        </mxCell>
        <mxCell id="FACWqjkW_qxCXSEoUD48-233" value="" style="shape=image;html=1;verticalAlign=top;verticalLabelPosition=bottom;labelBackgroundColor=#ffffff;imageAspect=0;aspect=fixed;image=https://cdn1.iconfinder.com/data/icons/unicons-line-vol-3/24/docker-128.png;labelBorderColor=none;fontColor=#FF3333;opacity=50;" vertex="1" parent="1">
          <mxGeometry x="1310" y="626" width="60" height="60" as="geometry" />
        </mxCell>
        <mxCell id="FACWqjkW_qxCXSEoUD48-234" value="" style="shape=image;html=1;verticalAlign=top;verticalLabelPosition=bottom;labelBackgroundColor=#ffffff;imageAspect=0;aspect=fixed;image=https://cdn1.iconfinder.com/data/icons/unicons-line-vol-3/24/docker-128.png;labelBorderColor=none;fontColor=#FF3333;opacity=50;" vertex="1" parent="1">
          <mxGeometry x="1070" y="717" width="60" height="60" as="geometry" />
        </mxCell>
        <mxCell id="FACWqjkW_qxCXSEoUD48-235" value="" style="shape=image;html=1;verticalAlign=top;verticalLabelPosition=bottom;labelBackgroundColor=#ffffff;imageAspect=0;aspect=fixed;image=https://cdn1.iconfinder.com/data/icons/unicons-line-vol-3/24/docker-128.png;labelBorderColor=none;fontColor=#FF3333;opacity=50;" vertex="1" parent="1">
          <mxGeometry x="1190" y="719" width="53" height="53" as="geometry" />
        </mxCell>
        <mxCell id="FACWqjkW_qxCXSEoUD48-236" value="" style="shape=image;html=1;verticalAlign=top;verticalLabelPosition=bottom;labelBackgroundColor=#ffffff;imageAspect=0;aspect=fixed;image=https://cdn1.iconfinder.com/data/icons/unicons-line-vol-3/24/docker-128.png;labelBorderColor=none;fontColor=#FF3333;opacity=50;" vertex="1" parent="1">
          <mxGeometry x="1310" y="712" width="60" height="60" as="geometry" />
        </mxCell>
        <mxCell id="FACWqjkW_qxCXSEoUD48-237" style="edgeStyle=orthogonalEdgeStyle;rounded=0;orthogonalLoop=1;jettySize=auto;html=1;entryX=0;entryY=0.5;entryDx=0;entryDy=0;dashed=1;fontColor=#990000;strokeColor=default;" edge="1" parent="1" source="FACWqjkW_qxCXSEoUD48-239" target="FACWqjkW_qxCXSEoUD48-235">
          <mxGeometry relative="1" as="geometry" />
        </mxCell>
        <mxCell id="FACWqjkW_qxCXSEoUD48-238" value="Http Request" style="edgeLabel;html=1;align=center;verticalAlign=middle;resizable=0;points=[];fontSize=8;fontColor=#990000;" vertex="1" connectable="0" parent="FACWqjkW_qxCXSEoUD48-237">
          <mxGeometry x="-0.3455" y="-1" relative="1" as="geometry">
            <mxPoint y="10" as="offset" />
          </mxGeometry>
        </mxCell>
        <mxCell id="FACWqjkW_qxCXSEoUD48-239" value="A Service" style="text;html=1;strokeColor=none;fillColor=none;align=center;verticalAlign=middle;whiteSpace=wrap;rounded=0;" vertex="1" parent="1">
          <mxGeometry x="1070" y="683.5" width="60" height="25" as="geometry" />
        </mxCell>
        <mxCell id="FACWqjkW_qxCXSEoUD48-240" style="edgeStyle=orthogonalEdgeStyle;rounded=0;orthogonalLoop=1;jettySize=auto;html=1;entryX=0.566;entryY=0.189;entryDx=0;entryDy=0;entryPerimeter=0;dashed=1;fontColor=#990000;strokeColor=default;" edge="1" parent="1" source="FACWqjkW_qxCXSEoUD48-241" target="FACWqjkW_qxCXSEoUD48-235">
          <mxGeometry relative="1" as="geometry" />
        </mxCell>
        <mxCell id="FACWqjkW_qxCXSEoUD48-241" value="B Service" style="text;html=1;strokeColor=none;fillColor=none;align=center;verticalAlign=middle;whiteSpace=wrap;rounded=0;" vertex="1" parent="1">
          <mxGeometry x="1190" y="667" width="60" height="25" as="geometry" />
        </mxCell>
        <mxCell id="FACWqjkW_qxCXSEoUD48-242" value="C Service" style="text;html=1;strokeColor=none;fillColor=none;align=center;verticalAlign=middle;whiteSpace=wrap;rounded=0;" vertex="1" parent="1">
          <mxGeometry x="1310" y="683.5" width="60" height="25" as="geometry" />
        </mxCell>
        <mxCell id="FACWqjkW_qxCXSEoUD48-243" style="edgeStyle=orthogonalEdgeStyle;rounded=0;orthogonalLoop=1;jettySize=auto;html=1;dashed=1;fontColor=#990000;strokeColor=default;" edge="1" parent="1" source="FACWqjkW_qxCXSEoUD48-245" target="FACWqjkW_qxCXSEoUD48-246">
          <mxGeometry relative="1" as="geometry" />
        </mxCell>
        <mxCell id="FACWqjkW_qxCXSEoUD48-244" value="Http Request" style="edgeLabel;html=1;align=center;verticalAlign=middle;resizable=0;points=[];fontSize=8;fontColor=#990000;" vertex="1" connectable="0" parent="FACWqjkW_qxCXSEoUD48-243">
          <mxGeometry x="-0.3091" relative="1" as="geometry">
            <mxPoint y="-12" as="offset" />
          </mxGeometry>
        </mxCell>
        <mxCell id="FACWqjkW_qxCXSEoUD48-245" value="D Service" style="text;html=1;strokeColor=none;fillColor=none;align=center;verticalAlign=middle;whiteSpace=wrap;rounded=0;" vertex="1" parent="1">
          <mxGeometry x="1070" y="766" width="60" height="25" as="geometry" />
        </mxCell>
        <mxCell id="FACWqjkW_qxCXSEoUD48-246" value="E Service" style="text;html=1;strokeColor=none;fillColor=none;align=center;verticalAlign=middle;whiteSpace=wrap;rounded=0;" vertex="1" parent="1">
          <mxGeometry x="1190" y="766" width="60" height="25" as="geometry" />
        </mxCell>
        <mxCell id="FACWqjkW_qxCXSEoUD48-247" style="edgeStyle=orthogonalEdgeStyle;rounded=0;orthogonalLoop=1;jettySize=auto;html=1;entryX=1;entryY=0.5;entryDx=0;entryDy=0;dashed=1;fontColor=#990000;strokeColor=default;" edge="1" parent="1" source="FACWqjkW_qxCXSEoUD48-249" target="FACWqjkW_qxCXSEoUD48-246">
          <mxGeometry relative="1" as="geometry" />
        </mxCell>
        <mxCell id="FACWqjkW_qxCXSEoUD48-248" value="Http Request" style="edgeLabel;html=1;align=center;verticalAlign=middle;resizable=0;points=[];fontSize=8;fontColor=#990000;" vertex="1" connectable="0" parent="FACWqjkW_qxCXSEoUD48-247">
          <mxGeometry x="-0.2768" y="1" relative="1" as="geometry">
            <mxPoint y="-13" as="offset" />
          </mxGeometry>
        </mxCell>
        <mxCell id="FACWqjkW_qxCXSEoUD48-249" value="F Service" style="text;html=1;strokeColor=none;fillColor=none;align=center;verticalAlign=middle;whiteSpace=wrap;rounded=0;" vertex="1" parent="1">
          <mxGeometry x="1310" y="766" width="60" height="25" as="geometry" />
        </mxCell>
        <mxCell id="FACWqjkW_qxCXSEoUD48-250" value="&lt;b&gt;&lt;font color=&quot;#990000&quot;&gt;Cluster&lt;/font&gt;&lt;/b&gt;" style="text;html=1;strokeColor=none;fillColor=none;align=left;verticalAlign=middle;whiteSpace=wrap;rounded=0;" vertex="1" parent="1">
          <mxGeometry x="1311.5" y="617" width="65.41" height="14" as="geometry" />
        </mxCell>
        <mxCell id="FACWqjkW_qxCXSEoUD48-251" value="Http Request" style="edgeLabel;html=1;align=center;verticalAlign=middle;resizable=0;points=[];fontSize=8;fontColor=#990000;" vertex="1" connectable="0" parent="1">
          <mxGeometry x="1221.500000000001" y="704.9978787878783" as="geometry" />
        </mxCell>
        <mxCell id="FACWqjkW_qxCXSEoUD48-435" style="edgeStyle=orthogonalEdgeStyle;rounded=0;jumpStyle=none;orthogonalLoop=1;jettySize=auto;html=1;dashed=1;fontSize=8;fontColor=#990000;strokeColor=default;startArrow=classic;startFill=1;" edge="1" parent="1" source="FACWqjkW_qxCXSEoUD48-252">
          <mxGeometry relative="1" as="geometry">
            <mxPoint x="1600" y="990" as="targetPoint" />
          </mxGeometry>
        </mxCell>
        <mxCell id="FACWqjkW_qxCXSEoUD48-252" value="" style="rounded=0;whiteSpace=wrap;html=1;labelBorderColor=none;fontColor=#FF3333;opacity=50;" vertex="1" parent="1">
          <mxGeometry x="1051.5" y="406" width="340" height="190" as="geometry" />
        </mxCell>
        <mxCell id="FACWqjkW_qxCXSEoUD48-253" value="Kubernetes Worker 3" style="text;html=1;strokeColor=none;fillColor=none;align=center;verticalAlign=middle;whiteSpace=wrap;rounded=0;" vertex="1" parent="1">
          <mxGeometry x="1051.5" y="406" width="130" height="25" as="geometry" />
        </mxCell>
        <mxCell id="FACWqjkW_qxCXSEoUD48-254" value="" style="shape=image;html=1;verticalAlign=top;verticalLabelPosition=bottom;labelBackgroundColor=#ffffff;imageAspect=0;aspect=fixed;image=https://cdn1.iconfinder.com/data/icons/unicons-line-vol-3/24/docker-128.png;labelBorderColor=none;fontColor=#FF3333;opacity=50;" vertex="1" parent="1">
          <mxGeometry x="1071.5" y="428" width="60" height="60" as="geometry" />
        </mxCell>
        <mxCell id="FACWqjkW_qxCXSEoUD48-255" value="" style="shape=image;html=1;verticalAlign=top;verticalLabelPosition=bottom;labelBackgroundColor=#ffffff;imageAspect=0;aspect=fixed;image=https://cdn1.iconfinder.com/data/icons/unicons-line-vol-3/24/docker-128.png;labelBorderColor=none;fontColor=#FF3333;opacity=50;" vertex="1" parent="1">
          <mxGeometry x="1191.5" y="413" width="60" height="60" as="geometry" />
        </mxCell>
        <mxCell id="FACWqjkW_qxCXSEoUD48-256" style="edgeStyle=orthogonalEdgeStyle;rounded=0;orthogonalLoop=1;jettySize=auto;html=1;entryX=1;entryY=0.5;entryDx=0;entryDy=0;dashed=1;fontColor=#990000;strokeColor=default;jumpStyle=none;" edge="1" parent="1" source="FACWqjkW_qxCXSEoUD48-258" target="FACWqjkW_qxCXSEoUD48-260">
          <mxGeometry relative="1" as="geometry" />
        </mxCell>
        <mxCell id="FACWqjkW_qxCXSEoUD48-257" value="&lt;font style=&quot;font-size: 8px&quot;&gt;Http Request&lt;/font&gt;" style="edgeLabel;html=1;align=center;verticalAlign=middle;resizable=0;points=[];fontColor=#990000;" vertex="1" connectable="0" parent="FACWqjkW_qxCXSEoUD48-256">
          <mxGeometry x="-0.2493" relative="1" as="geometry">
            <mxPoint as="offset" />
          </mxGeometry>
        </mxCell>
        <mxCell id="FACWqjkW_qxCXSEoUD48-258" value="" style="shape=image;html=1;verticalAlign=top;verticalLabelPosition=bottom;labelBackgroundColor=#ffffff;imageAspect=0;aspect=fixed;image=https://cdn1.iconfinder.com/data/icons/unicons-line-vol-3/24/docker-128.png;labelBorderColor=none;fontColor=#FF3333;opacity=50;" vertex="1" parent="1">
          <mxGeometry x="1311.5" y="422" width="60" height="60" as="geometry" />
        </mxCell>
        <mxCell id="FACWqjkW_qxCXSEoUD48-259" value="" style="shape=image;html=1;verticalAlign=top;verticalLabelPosition=bottom;labelBackgroundColor=#ffffff;imageAspect=0;aspect=fixed;image=https://cdn1.iconfinder.com/data/icons/unicons-line-vol-3/24/docker-128.png;labelBorderColor=none;fontColor=#FF3333;opacity=50;" vertex="1" parent="1">
          <mxGeometry x="1071.5" y="513" width="60" height="60" as="geometry" />
        </mxCell>
        <mxCell id="FACWqjkW_qxCXSEoUD48-260" value="" style="shape=image;html=1;verticalAlign=top;verticalLabelPosition=bottom;labelBackgroundColor=#ffffff;imageAspect=0;aspect=fixed;image=https://cdn1.iconfinder.com/data/icons/unicons-line-vol-3/24/docker-128.png;labelBorderColor=none;fontColor=#FF3333;opacity=50;" vertex="1" parent="1">
          <mxGeometry x="1191.5" y="515" width="53" height="53" as="geometry" />
        </mxCell>
        <mxCell id="FACWqjkW_qxCXSEoUD48-261" value="" style="shape=image;html=1;verticalAlign=top;verticalLabelPosition=bottom;labelBackgroundColor=#ffffff;imageAspect=0;aspect=fixed;image=https://cdn1.iconfinder.com/data/icons/unicons-line-vol-3/24/docker-128.png;labelBorderColor=none;fontColor=#FF3333;opacity=50;" vertex="1" parent="1">
          <mxGeometry x="1311.5" y="508" width="60" height="60" as="geometry" />
        </mxCell>
        <mxCell id="FACWqjkW_qxCXSEoUD48-262" style="edgeStyle=orthogonalEdgeStyle;rounded=0;orthogonalLoop=1;jettySize=auto;html=1;entryX=0;entryY=0.5;entryDx=0;entryDy=0;dashed=1;fontColor=#990000;strokeColor=default;" edge="1" parent="1" source="FACWqjkW_qxCXSEoUD48-264" target="FACWqjkW_qxCXSEoUD48-260">
          <mxGeometry relative="1" as="geometry" />
        </mxCell>
        <mxCell id="FACWqjkW_qxCXSEoUD48-263" value="Http Request" style="edgeLabel;html=1;align=center;verticalAlign=middle;resizable=0;points=[];fontSize=8;fontColor=#990000;" vertex="1" connectable="0" parent="FACWqjkW_qxCXSEoUD48-262">
          <mxGeometry x="-0.3455" y="-1" relative="1" as="geometry">
            <mxPoint y="10" as="offset" />
          </mxGeometry>
        </mxCell>
        <mxCell id="FACWqjkW_qxCXSEoUD48-264" value="A Service" style="text;html=1;strokeColor=none;fillColor=none;align=center;verticalAlign=middle;whiteSpace=wrap;rounded=0;" vertex="1" parent="1">
          <mxGeometry x="1071.5" y="479.5" width="60" height="25" as="geometry" />
        </mxCell>
        <mxCell id="FACWqjkW_qxCXSEoUD48-265" style="edgeStyle=orthogonalEdgeStyle;rounded=0;orthogonalLoop=1;jettySize=auto;html=1;entryX=0.566;entryY=0.189;entryDx=0;entryDy=0;entryPerimeter=0;dashed=1;fontColor=#990000;strokeColor=default;" edge="1" parent="1" source="FACWqjkW_qxCXSEoUD48-266" target="FACWqjkW_qxCXSEoUD48-260">
          <mxGeometry relative="1" as="geometry" />
        </mxCell>
        <mxCell id="FACWqjkW_qxCXSEoUD48-266" value="B Service" style="text;html=1;strokeColor=none;fillColor=none;align=center;verticalAlign=middle;whiteSpace=wrap;rounded=0;" vertex="1" parent="1">
          <mxGeometry x="1191.5" y="463" width="60" height="25" as="geometry" />
        </mxCell>
        <mxCell id="FACWqjkW_qxCXSEoUD48-267" value="C Service" style="text;html=1;strokeColor=none;fillColor=none;align=center;verticalAlign=middle;whiteSpace=wrap;rounded=0;" vertex="1" parent="1">
          <mxGeometry x="1311.5" y="479.5" width="60" height="25" as="geometry" />
        </mxCell>
        <mxCell id="FACWqjkW_qxCXSEoUD48-268" style="edgeStyle=orthogonalEdgeStyle;rounded=0;orthogonalLoop=1;jettySize=auto;html=1;dashed=1;fontColor=#990000;strokeColor=default;" edge="1" parent="1" source="FACWqjkW_qxCXSEoUD48-270" target="FACWqjkW_qxCXSEoUD48-271">
          <mxGeometry relative="1" as="geometry" />
        </mxCell>
        <mxCell id="FACWqjkW_qxCXSEoUD48-269" value="Http Request" style="edgeLabel;html=1;align=center;verticalAlign=middle;resizable=0;points=[];fontSize=8;fontColor=#990000;" vertex="1" connectable="0" parent="FACWqjkW_qxCXSEoUD48-268">
          <mxGeometry x="-0.3091" relative="1" as="geometry">
            <mxPoint y="-12" as="offset" />
          </mxGeometry>
        </mxCell>
        <mxCell id="FACWqjkW_qxCXSEoUD48-270" value="D Service" style="text;html=1;strokeColor=none;fillColor=none;align=center;verticalAlign=middle;whiteSpace=wrap;rounded=0;" vertex="1" parent="1">
          <mxGeometry x="1071.5" y="562" width="60" height="25" as="geometry" />
        </mxCell>
        <mxCell id="FACWqjkW_qxCXSEoUD48-271" value="E Service" style="text;html=1;strokeColor=none;fillColor=none;align=center;verticalAlign=middle;whiteSpace=wrap;rounded=0;" vertex="1" parent="1">
          <mxGeometry x="1191.5" y="562" width="60" height="25" as="geometry" />
        </mxCell>
        <mxCell id="FACWqjkW_qxCXSEoUD48-272" style="edgeStyle=orthogonalEdgeStyle;rounded=0;orthogonalLoop=1;jettySize=auto;html=1;entryX=1;entryY=0.5;entryDx=0;entryDy=0;dashed=1;fontColor=#990000;strokeColor=default;" edge="1" parent="1" source="FACWqjkW_qxCXSEoUD48-274" target="FACWqjkW_qxCXSEoUD48-271">
          <mxGeometry relative="1" as="geometry" />
        </mxCell>
        <mxCell id="FACWqjkW_qxCXSEoUD48-273" value="Http Request" style="edgeLabel;html=1;align=center;verticalAlign=middle;resizable=0;points=[];fontSize=8;fontColor=#990000;" vertex="1" connectable="0" parent="FACWqjkW_qxCXSEoUD48-272">
          <mxGeometry x="-0.2768" y="1" relative="1" as="geometry">
            <mxPoint y="-13" as="offset" />
          </mxGeometry>
        </mxCell>
        <mxCell id="FACWqjkW_qxCXSEoUD48-437" value="" style="edgeStyle=none;shape=link;rounded=0;jumpStyle=none;orthogonalLoop=1;jettySize=auto;html=1;dashed=1;fontSize=8;fontColor=#990000;startArrow=classic;startFill=1;endArrow=openThin;endFill=0;strokeColor=default;" edge="1" parent="1" source="FACWqjkW_qxCXSEoUD48-274" target="FACWqjkW_qxCXSEoUD48-250">
          <mxGeometry relative="1" as="geometry" />
        </mxCell>
        <mxCell id="FACWqjkW_qxCXSEoUD48-274" value="F Service" style="text;html=1;strokeColor=none;fillColor=none;align=center;verticalAlign=middle;whiteSpace=wrap;rounded=0;" vertex="1" parent="1">
          <mxGeometry x="1311.5" y="562" width="60" height="25" as="geometry" />
        </mxCell>
        <mxCell id="FACWqjkW_qxCXSEoUD48-275" value="&lt;b&gt;&lt;font color=&quot;#990000&quot;&gt;Cluster&lt;/font&gt;&lt;/b&gt;" style="text;html=1;strokeColor=none;fillColor=none;align=left;verticalAlign=middle;whiteSpace=wrap;rounded=0;" vertex="1" parent="1">
          <mxGeometry x="1313" y="413" width="65.41" height="14" as="geometry" />
        </mxCell>
        <mxCell id="FACWqjkW_qxCXSEoUD48-276" value="Http Request" style="edgeLabel;html=1;align=center;verticalAlign=middle;resizable=0;points=[];fontSize=8;fontColor=#990000;" vertex="1" connectable="0" parent="1">
          <mxGeometry x="1223.000000000001" y="500.99787878787834" as="geometry" />
        </mxCell>
        <mxCell id="FACWqjkW_qxCXSEoUD48-434" style="edgeStyle=orthogonalEdgeStyle;rounded=0;jumpStyle=none;orthogonalLoop=1;jettySize=auto;html=1;dashed=1;fontSize=8;fontColor=#990000;strokeColor=default;startArrow=classic;startFill=1;" edge="1" parent="1" source="FACWqjkW_qxCXSEoUD48-352">
          <mxGeometry relative="1" as="geometry">
            <mxPoint x="1600" y="1070" as="targetPoint" />
          </mxGeometry>
        </mxCell>
        <mxCell id="FACWqjkW_qxCXSEoUD48-352" value="" style="rounded=0;whiteSpace=wrap;html=1;labelBorderColor=none;fontColor=#FF3333;opacity=50;" vertex="1" parent="1">
          <mxGeometry x="1050.75" y="1467.5" width="340" height="190" as="geometry" />
        </mxCell>
        <mxCell id="FACWqjkW_qxCXSEoUD48-353" value="Kubernetes Worker 3" style="text;html=1;strokeColor=none;fillColor=none;align=center;verticalAlign=middle;whiteSpace=wrap;rounded=0;" vertex="1" parent="1">
          <mxGeometry x="1050.75" y="1467.5" width="130" height="25" as="geometry" />
        </mxCell>
        <mxCell id="FACWqjkW_qxCXSEoUD48-354" value="" style="shape=image;html=1;verticalAlign=top;verticalLabelPosition=bottom;labelBackgroundColor=#ffffff;imageAspect=0;aspect=fixed;image=https://cdn1.iconfinder.com/data/icons/unicons-line-vol-3/24/docker-128.png;labelBorderColor=none;fontColor=#FF3333;opacity=50;" vertex="1" parent="1">
          <mxGeometry x="1070.75" y="1489.5" width="60" height="60" as="geometry" />
        </mxCell>
        <mxCell id="FACWqjkW_qxCXSEoUD48-355" value="" style="shape=image;html=1;verticalAlign=top;verticalLabelPosition=bottom;labelBackgroundColor=#ffffff;imageAspect=0;aspect=fixed;image=https://cdn1.iconfinder.com/data/icons/unicons-line-vol-3/24/docker-128.png;labelBorderColor=none;fontColor=#FF3333;opacity=50;" vertex="1" parent="1">
          <mxGeometry x="1190.75" y="1474.5" width="60" height="60" as="geometry" />
        </mxCell>
        <mxCell id="FACWqjkW_qxCXSEoUD48-356" style="edgeStyle=orthogonalEdgeStyle;rounded=0;orthogonalLoop=1;jettySize=auto;html=1;entryX=1;entryY=0.5;entryDx=0;entryDy=0;dashed=1;fontColor=#990000;strokeColor=default;jumpStyle=none;" edge="1" parent="1" source="FACWqjkW_qxCXSEoUD48-358" target="FACWqjkW_qxCXSEoUD48-360">
          <mxGeometry relative="1" as="geometry" />
        </mxCell>
        <mxCell id="FACWqjkW_qxCXSEoUD48-357" value="&lt;font style=&quot;font-size: 8px&quot;&gt;Http Request&lt;/font&gt;" style="edgeLabel;html=1;align=center;verticalAlign=middle;resizable=0;points=[];fontColor=#990000;" vertex="1" connectable="0" parent="FACWqjkW_qxCXSEoUD48-356">
          <mxGeometry x="-0.2493" relative="1" as="geometry">
            <mxPoint as="offset" />
          </mxGeometry>
        </mxCell>
        <mxCell id="FACWqjkW_qxCXSEoUD48-358" value="" style="shape=image;html=1;verticalAlign=top;verticalLabelPosition=bottom;labelBackgroundColor=#ffffff;imageAspect=0;aspect=fixed;image=https://cdn1.iconfinder.com/data/icons/unicons-line-vol-3/24/docker-128.png;labelBorderColor=none;fontColor=#FF3333;opacity=50;" vertex="1" parent="1">
          <mxGeometry x="1310.75" y="1483.5" width="60" height="60" as="geometry" />
        </mxCell>
        <mxCell id="FACWqjkW_qxCXSEoUD48-359" value="" style="shape=image;html=1;verticalAlign=top;verticalLabelPosition=bottom;labelBackgroundColor=#ffffff;imageAspect=0;aspect=fixed;image=https://cdn1.iconfinder.com/data/icons/unicons-line-vol-3/24/docker-128.png;labelBorderColor=none;fontColor=#FF3333;opacity=50;" vertex="1" parent="1">
          <mxGeometry x="1070.75" y="1574.5" width="60" height="60" as="geometry" />
        </mxCell>
        <mxCell id="FACWqjkW_qxCXSEoUD48-360" value="" style="shape=image;html=1;verticalAlign=top;verticalLabelPosition=bottom;labelBackgroundColor=#ffffff;imageAspect=0;aspect=fixed;image=https://cdn1.iconfinder.com/data/icons/unicons-line-vol-3/24/docker-128.png;labelBorderColor=none;fontColor=#FF3333;opacity=50;" vertex="1" parent="1">
          <mxGeometry x="1190.75" y="1576.5" width="53" height="53" as="geometry" />
        </mxCell>
        <mxCell id="FACWqjkW_qxCXSEoUD48-361" value="" style="shape=image;html=1;verticalAlign=top;verticalLabelPosition=bottom;labelBackgroundColor=#ffffff;imageAspect=0;aspect=fixed;image=https://cdn1.iconfinder.com/data/icons/unicons-line-vol-3/24/docker-128.png;labelBorderColor=none;fontColor=#FF3333;opacity=50;" vertex="1" parent="1">
          <mxGeometry x="1310.75" y="1569.5" width="60" height="60" as="geometry" />
        </mxCell>
        <mxCell id="FACWqjkW_qxCXSEoUD48-362" style="edgeStyle=orthogonalEdgeStyle;rounded=0;orthogonalLoop=1;jettySize=auto;html=1;entryX=0;entryY=0.5;entryDx=0;entryDy=0;dashed=1;fontColor=#990000;strokeColor=default;" edge="1" parent="1" source="FACWqjkW_qxCXSEoUD48-364" target="FACWqjkW_qxCXSEoUD48-360">
          <mxGeometry relative="1" as="geometry" />
        </mxCell>
        <mxCell id="FACWqjkW_qxCXSEoUD48-363" value="Http Request" style="edgeLabel;html=1;align=center;verticalAlign=middle;resizable=0;points=[];fontSize=8;fontColor=#990000;" vertex="1" connectable="0" parent="FACWqjkW_qxCXSEoUD48-362">
          <mxGeometry x="-0.3455" y="-1" relative="1" as="geometry">
            <mxPoint y="10" as="offset" />
          </mxGeometry>
        </mxCell>
        <mxCell id="FACWqjkW_qxCXSEoUD48-364" value="A Service" style="text;html=1;strokeColor=none;fillColor=none;align=center;verticalAlign=middle;whiteSpace=wrap;rounded=0;" vertex="1" parent="1">
          <mxGeometry x="1070.75" y="1541" width="60" height="25" as="geometry" />
        </mxCell>
        <mxCell id="FACWqjkW_qxCXSEoUD48-365" style="edgeStyle=orthogonalEdgeStyle;rounded=0;orthogonalLoop=1;jettySize=auto;html=1;entryX=0.566;entryY=0.189;entryDx=0;entryDy=0;entryPerimeter=0;dashed=1;fontColor=#990000;strokeColor=default;" edge="1" parent="1" source="FACWqjkW_qxCXSEoUD48-366" target="FACWqjkW_qxCXSEoUD48-360">
          <mxGeometry relative="1" as="geometry" />
        </mxCell>
        <mxCell id="FACWqjkW_qxCXSEoUD48-366" value="B Service" style="text;html=1;strokeColor=none;fillColor=none;align=center;verticalAlign=middle;whiteSpace=wrap;rounded=0;" vertex="1" parent="1">
          <mxGeometry x="1190.75" y="1524.5" width="60" height="25" as="geometry" />
        </mxCell>
        <mxCell id="FACWqjkW_qxCXSEoUD48-367" value="C Service" style="text;html=1;strokeColor=none;fillColor=none;align=center;verticalAlign=middle;whiteSpace=wrap;rounded=0;" vertex="1" parent="1">
          <mxGeometry x="1310.75" y="1541" width="60" height="25" as="geometry" />
        </mxCell>
        <mxCell id="FACWqjkW_qxCXSEoUD48-368" style="edgeStyle=orthogonalEdgeStyle;rounded=0;orthogonalLoop=1;jettySize=auto;html=1;dashed=1;fontColor=#990000;strokeColor=default;" edge="1" parent="1" source="FACWqjkW_qxCXSEoUD48-370" target="FACWqjkW_qxCXSEoUD48-371">
          <mxGeometry relative="1" as="geometry" />
        </mxCell>
        <mxCell id="FACWqjkW_qxCXSEoUD48-369" value="Http Request" style="edgeLabel;html=1;align=center;verticalAlign=middle;resizable=0;points=[];fontSize=8;fontColor=#990000;" vertex="1" connectable="0" parent="FACWqjkW_qxCXSEoUD48-368">
          <mxGeometry x="-0.3091" relative="1" as="geometry">
            <mxPoint y="-12" as="offset" />
          </mxGeometry>
        </mxCell>
        <mxCell id="FACWqjkW_qxCXSEoUD48-370" value="D Service" style="text;html=1;strokeColor=none;fillColor=none;align=center;verticalAlign=middle;whiteSpace=wrap;rounded=0;" vertex="1" parent="1">
          <mxGeometry x="1070.75" y="1623.5" width="60" height="25" as="geometry" />
        </mxCell>
        <mxCell id="FACWqjkW_qxCXSEoUD48-371" value="E Service" style="text;html=1;strokeColor=none;fillColor=none;align=center;verticalAlign=middle;whiteSpace=wrap;rounded=0;" vertex="1" parent="1">
          <mxGeometry x="1190.75" y="1623.5" width="60" height="25" as="geometry" />
        </mxCell>
        <mxCell id="FACWqjkW_qxCXSEoUD48-372" style="edgeStyle=orthogonalEdgeStyle;rounded=0;orthogonalLoop=1;jettySize=auto;html=1;entryX=1;entryY=0.5;entryDx=0;entryDy=0;dashed=1;fontColor=#990000;strokeColor=default;" edge="1" parent="1" source="FACWqjkW_qxCXSEoUD48-374" target="FACWqjkW_qxCXSEoUD48-371">
          <mxGeometry relative="1" as="geometry" />
        </mxCell>
        <mxCell id="FACWqjkW_qxCXSEoUD48-373" value="Http Request" style="edgeLabel;html=1;align=center;verticalAlign=middle;resizable=0;points=[];fontSize=8;fontColor=#990000;" vertex="1" connectable="0" parent="FACWqjkW_qxCXSEoUD48-372">
          <mxGeometry x="-0.2768" y="1" relative="1" as="geometry">
            <mxPoint y="-13" as="offset" />
          </mxGeometry>
        </mxCell>
        <mxCell id="FACWqjkW_qxCXSEoUD48-374" value="F Service" style="text;html=1;strokeColor=none;fillColor=none;align=center;verticalAlign=middle;whiteSpace=wrap;rounded=0;" vertex="1" parent="1">
          <mxGeometry x="1310.75" y="1623.5" width="60" height="25" as="geometry" />
        </mxCell>
        <mxCell id="FACWqjkW_qxCXSEoUD48-375" value="&lt;b&gt;&lt;font color=&quot;#990000&quot;&gt;Cluster&lt;/font&gt;&lt;/b&gt;" style="text;html=1;strokeColor=none;fillColor=none;align=left;verticalAlign=middle;whiteSpace=wrap;rounded=0;" vertex="1" parent="1">
          <mxGeometry x="1312.25" y="1474.5" width="65.41" height="14" as="geometry" />
        </mxCell>
        <mxCell id="FACWqjkW_qxCXSEoUD48-376" value="Http Request" style="edgeLabel;html=1;align=center;verticalAlign=middle;resizable=0;points=[];fontSize=8;fontColor=#990000;" vertex="1" connectable="0" parent="1">
          <mxGeometry x="1222.250000000001" y="1562.4978787878783" as="geometry" />
        </mxCell>
        <mxCell id="FACWqjkW_qxCXSEoUD48-433" style="edgeStyle=orthogonalEdgeStyle;rounded=0;jumpStyle=none;orthogonalLoop=1;jettySize=auto;html=1;dashed=1;fontSize=8;fontColor=#990000;strokeColor=default;startArrow=classic;startFill=1;" edge="1" parent="1" source="FACWqjkW_qxCXSEoUD48-377">
          <mxGeometry relative="1" as="geometry">
            <mxPoint x="1540" y="1070" as="targetPoint" />
          </mxGeometry>
        </mxCell>
        <mxCell id="FACWqjkW_qxCXSEoUD48-377" value="" style="rounded=0;whiteSpace=wrap;html=1;labelBorderColor=none;fontColor=#FF3333;opacity=50;" vertex="1" parent="1">
          <mxGeometry x="1050.75" y="1266.5" width="340" height="190" as="geometry" />
        </mxCell>
        <mxCell id="FACWqjkW_qxCXSEoUD48-378" value="Kubernetes Worker 3" style="text;html=1;strokeColor=none;fillColor=none;align=center;verticalAlign=middle;whiteSpace=wrap;rounded=0;" vertex="1" parent="1">
          <mxGeometry x="1050.75" y="1266.5" width="130" height="25" as="geometry" />
        </mxCell>
        <mxCell id="FACWqjkW_qxCXSEoUD48-379" value="" style="shape=image;html=1;verticalAlign=top;verticalLabelPosition=bottom;labelBackgroundColor=#ffffff;imageAspect=0;aspect=fixed;image=https://cdn1.iconfinder.com/data/icons/unicons-line-vol-3/24/docker-128.png;labelBorderColor=none;fontColor=#FF3333;opacity=50;" vertex="1" parent="1">
          <mxGeometry x="1070.75" y="1288.5" width="60" height="60" as="geometry" />
        </mxCell>
        <mxCell id="FACWqjkW_qxCXSEoUD48-380" value="" style="shape=image;html=1;verticalAlign=top;verticalLabelPosition=bottom;labelBackgroundColor=#ffffff;imageAspect=0;aspect=fixed;image=https://cdn1.iconfinder.com/data/icons/unicons-line-vol-3/24/docker-128.png;labelBorderColor=none;fontColor=#FF3333;opacity=50;" vertex="1" parent="1">
          <mxGeometry x="1190.75" y="1273.5" width="60" height="60" as="geometry" />
        </mxCell>
        <mxCell id="FACWqjkW_qxCXSEoUD48-381" style="edgeStyle=orthogonalEdgeStyle;rounded=0;orthogonalLoop=1;jettySize=auto;html=1;entryX=1;entryY=0.5;entryDx=0;entryDy=0;dashed=1;fontColor=#990000;strokeColor=default;jumpStyle=none;" edge="1" parent="1" source="FACWqjkW_qxCXSEoUD48-383" target="FACWqjkW_qxCXSEoUD48-385">
          <mxGeometry relative="1" as="geometry" />
        </mxCell>
        <mxCell id="FACWqjkW_qxCXSEoUD48-382" value="&lt;font style=&quot;font-size: 8px&quot;&gt;Http Request&lt;/font&gt;" style="edgeLabel;html=1;align=center;verticalAlign=middle;resizable=0;points=[];fontColor=#990000;" vertex="1" connectable="0" parent="FACWqjkW_qxCXSEoUD48-381">
          <mxGeometry x="-0.2493" relative="1" as="geometry">
            <mxPoint as="offset" />
          </mxGeometry>
        </mxCell>
        <mxCell id="FACWqjkW_qxCXSEoUD48-383" value="" style="shape=image;html=1;verticalAlign=top;verticalLabelPosition=bottom;labelBackgroundColor=#ffffff;imageAspect=0;aspect=fixed;image=https://cdn1.iconfinder.com/data/icons/unicons-line-vol-3/24/docker-128.png;labelBorderColor=none;fontColor=#FF3333;opacity=50;" vertex="1" parent="1">
          <mxGeometry x="1310.75" y="1282.5" width="60" height="60" as="geometry" />
        </mxCell>
        <mxCell id="FACWqjkW_qxCXSEoUD48-384" value="" style="shape=image;html=1;verticalAlign=top;verticalLabelPosition=bottom;labelBackgroundColor=#ffffff;imageAspect=0;aspect=fixed;image=https://cdn1.iconfinder.com/data/icons/unicons-line-vol-3/24/docker-128.png;labelBorderColor=none;fontColor=#FF3333;opacity=50;" vertex="1" parent="1">
          <mxGeometry x="1070.75" y="1373.5" width="60" height="60" as="geometry" />
        </mxCell>
        <mxCell id="FACWqjkW_qxCXSEoUD48-385" value="" style="shape=image;html=1;verticalAlign=top;verticalLabelPosition=bottom;labelBackgroundColor=#ffffff;imageAspect=0;aspect=fixed;image=https://cdn1.iconfinder.com/data/icons/unicons-line-vol-3/24/docker-128.png;labelBorderColor=none;fontColor=#FF3333;opacity=50;" vertex="1" parent="1">
          <mxGeometry x="1190.75" y="1375.5" width="53" height="53" as="geometry" />
        </mxCell>
        <mxCell id="FACWqjkW_qxCXSEoUD48-386" value="" style="shape=image;html=1;verticalAlign=top;verticalLabelPosition=bottom;labelBackgroundColor=#ffffff;imageAspect=0;aspect=fixed;image=https://cdn1.iconfinder.com/data/icons/unicons-line-vol-3/24/docker-128.png;labelBorderColor=none;fontColor=#FF3333;opacity=50;" vertex="1" parent="1">
          <mxGeometry x="1310.75" y="1368.5" width="60" height="60" as="geometry" />
        </mxCell>
        <mxCell id="FACWqjkW_qxCXSEoUD48-387" style="edgeStyle=orthogonalEdgeStyle;rounded=0;orthogonalLoop=1;jettySize=auto;html=1;entryX=0;entryY=0.5;entryDx=0;entryDy=0;dashed=1;fontColor=#990000;strokeColor=default;" edge="1" parent="1" source="FACWqjkW_qxCXSEoUD48-389" target="FACWqjkW_qxCXSEoUD48-385">
          <mxGeometry relative="1" as="geometry" />
        </mxCell>
        <mxCell id="FACWqjkW_qxCXSEoUD48-388" value="Http Request" style="edgeLabel;html=1;align=center;verticalAlign=middle;resizable=0;points=[];fontSize=8;fontColor=#990000;" vertex="1" connectable="0" parent="FACWqjkW_qxCXSEoUD48-387">
          <mxGeometry x="-0.3455" y="-1" relative="1" as="geometry">
            <mxPoint y="10" as="offset" />
          </mxGeometry>
        </mxCell>
        <mxCell id="FACWqjkW_qxCXSEoUD48-389" value="A Service" style="text;html=1;strokeColor=none;fillColor=none;align=center;verticalAlign=middle;whiteSpace=wrap;rounded=0;" vertex="1" parent="1">
          <mxGeometry x="1070.75" y="1340" width="60" height="25" as="geometry" />
        </mxCell>
        <mxCell id="FACWqjkW_qxCXSEoUD48-390" style="edgeStyle=orthogonalEdgeStyle;rounded=0;orthogonalLoop=1;jettySize=auto;html=1;entryX=0.566;entryY=0.189;entryDx=0;entryDy=0;entryPerimeter=0;dashed=1;fontColor=#990000;strokeColor=default;" edge="1" parent="1" source="FACWqjkW_qxCXSEoUD48-391" target="FACWqjkW_qxCXSEoUD48-385">
          <mxGeometry relative="1" as="geometry" />
        </mxCell>
        <mxCell id="FACWqjkW_qxCXSEoUD48-391" value="B Service" style="text;html=1;strokeColor=none;fillColor=none;align=center;verticalAlign=middle;whiteSpace=wrap;rounded=0;" vertex="1" parent="1">
          <mxGeometry x="1190.75" y="1323.5" width="60" height="25" as="geometry" />
        </mxCell>
        <mxCell id="FACWqjkW_qxCXSEoUD48-392" value="C Service" style="text;html=1;strokeColor=none;fillColor=none;align=center;verticalAlign=middle;whiteSpace=wrap;rounded=0;" vertex="1" parent="1">
          <mxGeometry x="1310.75" y="1340" width="60" height="25" as="geometry" />
        </mxCell>
        <mxCell id="FACWqjkW_qxCXSEoUD48-393" style="edgeStyle=orthogonalEdgeStyle;rounded=0;orthogonalLoop=1;jettySize=auto;html=1;dashed=1;fontColor=#990000;strokeColor=default;" edge="1" parent="1" source="FACWqjkW_qxCXSEoUD48-395" target="FACWqjkW_qxCXSEoUD48-396">
          <mxGeometry relative="1" as="geometry" />
        </mxCell>
        <mxCell id="FACWqjkW_qxCXSEoUD48-394" value="Http Request" style="edgeLabel;html=1;align=center;verticalAlign=middle;resizable=0;points=[];fontSize=8;fontColor=#990000;" vertex="1" connectable="0" parent="FACWqjkW_qxCXSEoUD48-393">
          <mxGeometry x="-0.3091" relative="1" as="geometry">
            <mxPoint y="-12" as="offset" />
          </mxGeometry>
        </mxCell>
        <mxCell id="FACWqjkW_qxCXSEoUD48-395" value="D Service" style="text;html=1;strokeColor=none;fillColor=none;align=center;verticalAlign=middle;whiteSpace=wrap;rounded=0;" vertex="1" parent="1">
          <mxGeometry x="1070.75" y="1422.5" width="60" height="25" as="geometry" />
        </mxCell>
        <mxCell id="FACWqjkW_qxCXSEoUD48-396" value="E Service" style="text;html=1;strokeColor=none;fillColor=none;align=center;verticalAlign=middle;whiteSpace=wrap;rounded=0;" vertex="1" parent="1">
          <mxGeometry x="1190.75" y="1422.5" width="60" height="25" as="geometry" />
        </mxCell>
        <mxCell id="FACWqjkW_qxCXSEoUD48-397" style="edgeStyle=orthogonalEdgeStyle;rounded=0;orthogonalLoop=1;jettySize=auto;html=1;entryX=1;entryY=0.5;entryDx=0;entryDy=0;dashed=1;fontColor=#990000;strokeColor=default;" edge="1" parent="1" source="FACWqjkW_qxCXSEoUD48-399" target="FACWqjkW_qxCXSEoUD48-396">
          <mxGeometry relative="1" as="geometry" />
        </mxCell>
        <mxCell id="FACWqjkW_qxCXSEoUD48-398" value="Http Request" style="edgeLabel;html=1;align=center;verticalAlign=middle;resizable=0;points=[];fontSize=8;fontColor=#990000;" vertex="1" connectable="0" parent="FACWqjkW_qxCXSEoUD48-397">
          <mxGeometry x="-0.2768" y="1" relative="1" as="geometry">
            <mxPoint y="-13" as="offset" />
          </mxGeometry>
        </mxCell>
        <mxCell id="FACWqjkW_qxCXSEoUD48-399" value="F Service" style="text;html=1;strokeColor=none;fillColor=none;align=center;verticalAlign=middle;whiteSpace=wrap;rounded=0;" vertex="1" parent="1">
          <mxGeometry x="1310.75" y="1422.5" width="60" height="25" as="geometry" />
        </mxCell>
        <mxCell id="FACWqjkW_qxCXSEoUD48-400" value="&lt;b&gt;&lt;font color=&quot;#990000&quot;&gt;Cluster&lt;br&gt;&lt;/font&gt;&lt;/b&gt;" style="text;html=1;strokeColor=none;fillColor=none;align=left;verticalAlign=middle;whiteSpace=wrap;rounded=0;" vertex="1" parent="1">
          <mxGeometry x="1312.25" y="1273.5" width="65.41" height="14" as="geometry" />
        </mxCell>
        <mxCell id="FACWqjkW_qxCXSEoUD48-401" value="Http Request" style="edgeLabel;html=1;align=center;verticalAlign=middle;resizable=0;points=[];fontSize=8;fontColor=#990000;" vertex="1" connectable="0" parent="1">
          <mxGeometry x="1222.250000000001" y="1361.4978787878783" as="geometry" />
        </mxCell>
        <mxCell id="FACWqjkW_qxCXSEoUD48-431" style="edgeStyle=orthogonalEdgeStyle;rounded=0;jumpStyle=none;orthogonalLoop=1;jettySize=auto;html=1;entryX=0;entryY=0.75;entryDx=0;entryDy=0;dashed=1;fontSize=8;fontColor=#990000;strokeColor=default;startArrow=classic;startFill=1;" edge="1" parent="1" source="FACWqjkW_qxCXSEoUD48-402" target="FACWqjkW_qxCXSEoUD48-428">
          <mxGeometry relative="1" as="geometry" />
        </mxCell>
        <mxCell id="FACWqjkW_qxCXSEoUD48-402" value="" style="rounded=0;whiteSpace=wrap;html=1;labelBorderColor=none;fontColor=#FF3333;opacity=50;" vertex="1" parent="1">
          <mxGeometry x="1052.25" y="1062.5" width="340" height="190" as="geometry" />
        </mxCell>
        <mxCell id="FACWqjkW_qxCXSEoUD48-403" value="Kubernetes Worker 3" style="text;html=1;strokeColor=none;fillColor=none;align=center;verticalAlign=middle;whiteSpace=wrap;rounded=0;" vertex="1" parent="1">
          <mxGeometry x="1052.25" y="1062.5" width="130" height="25" as="geometry" />
        </mxCell>
        <mxCell id="FACWqjkW_qxCXSEoUD48-404" value="" style="shape=image;html=1;verticalAlign=top;verticalLabelPosition=bottom;labelBackgroundColor=#ffffff;imageAspect=0;aspect=fixed;image=https://cdn1.iconfinder.com/data/icons/unicons-line-vol-3/24/docker-128.png;labelBorderColor=none;fontColor=#FF3333;opacity=50;" vertex="1" parent="1">
          <mxGeometry x="1072.25" y="1084.5" width="60" height="60" as="geometry" />
        </mxCell>
        <mxCell id="FACWqjkW_qxCXSEoUD48-405" value="" style="shape=image;html=1;verticalAlign=top;verticalLabelPosition=bottom;labelBackgroundColor=#ffffff;imageAspect=0;aspect=fixed;image=https://cdn1.iconfinder.com/data/icons/unicons-line-vol-3/24/docker-128.png;labelBorderColor=none;fontColor=#FF3333;opacity=50;" vertex="1" parent="1">
          <mxGeometry x="1192.25" y="1069.5" width="60" height="60" as="geometry" />
        </mxCell>
        <mxCell id="FACWqjkW_qxCXSEoUD48-406" style="edgeStyle=orthogonalEdgeStyle;rounded=0;orthogonalLoop=1;jettySize=auto;html=1;entryX=1;entryY=0.5;entryDx=0;entryDy=0;dashed=1;fontColor=#990000;strokeColor=default;jumpStyle=none;" edge="1" parent="1" source="FACWqjkW_qxCXSEoUD48-408" target="FACWqjkW_qxCXSEoUD48-410">
          <mxGeometry relative="1" as="geometry" />
        </mxCell>
        <mxCell id="FACWqjkW_qxCXSEoUD48-407" value="&lt;font style=&quot;font-size: 8px&quot;&gt;Http Request&lt;/font&gt;" style="edgeLabel;html=1;align=center;verticalAlign=middle;resizable=0;points=[];fontColor=#990000;" vertex="1" connectable="0" parent="FACWqjkW_qxCXSEoUD48-406">
          <mxGeometry x="-0.2493" relative="1" as="geometry">
            <mxPoint as="offset" />
          </mxGeometry>
        </mxCell>
        <mxCell id="FACWqjkW_qxCXSEoUD48-408" value="" style="shape=image;html=1;verticalAlign=top;verticalLabelPosition=bottom;labelBackgroundColor=#ffffff;imageAspect=0;aspect=fixed;image=https://cdn1.iconfinder.com/data/icons/unicons-line-vol-3/24/docker-128.png;labelBorderColor=none;fontColor=#FF3333;opacity=50;" vertex="1" parent="1">
          <mxGeometry x="1312.25" y="1078.5" width="60" height="60" as="geometry" />
        </mxCell>
        <mxCell id="FACWqjkW_qxCXSEoUD48-409" value="" style="shape=image;html=1;verticalAlign=top;verticalLabelPosition=bottom;labelBackgroundColor=#ffffff;imageAspect=0;aspect=fixed;image=https://cdn1.iconfinder.com/data/icons/unicons-line-vol-3/24/docker-128.png;labelBorderColor=none;fontColor=#FF3333;opacity=50;" vertex="1" parent="1">
          <mxGeometry x="1072.25" y="1169.5" width="60" height="60" as="geometry" />
        </mxCell>
        <mxCell id="FACWqjkW_qxCXSEoUD48-410" value="" style="shape=image;html=1;verticalAlign=top;verticalLabelPosition=bottom;labelBackgroundColor=#ffffff;imageAspect=0;aspect=fixed;image=https://cdn1.iconfinder.com/data/icons/unicons-line-vol-3/24/docker-128.png;labelBorderColor=none;fontColor=#FF3333;opacity=50;" vertex="1" parent="1">
          <mxGeometry x="1192.25" y="1171.5" width="53" height="53" as="geometry" />
        </mxCell>
        <mxCell id="FACWqjkW_qxCXSEoUD48-411" value="" style="shape=image;html=1;verticalAlign=top;verticalLabelPosition=bottom;labelBackgroundColor=#ffffff;imageAspect=0;aspect=fixed;image=https://cdn1.iconfinder.com/data/icons/unicons-line-vol-3/24/docker-128.png;labelBorderColor=none;fontColor=#FF3333;opacity=50;" vertex="1" parent="1">
          <mxGeometry x="1312.25" y="1164.5" width="60" height="60" as="geometry" />
        </mxCell>
        <mxCell id="FACWqjkW_qxCXSEoUD48-412" style="edgeStyle=orthogonalEdgeStyle;rounded=0;orthogonalLoop=1;jettySize=auto;html=1;entryX=0;entryY=0.5;entryDx=0;entryDy=0;dashed=1;fontColor=#990000;strokeColor=default;" edge="1" parent="1" source="FACWqjkW_qxCXSEoUD48-414" target="FACWqjkW_qxCXSEoUD48-410">
          <mxGeometry relative="1" as="geometry" />
        </mxCell>
        <mxCell id="FACWqjkW_qxCXSEoUD48-413" value="Http Request" style="edgeLabel;html=1;align=center;verticalAlign=middle;resizable=0;points=[];fontSize=8;fontColor=#990000;" vertex="1" connectable="0" parent="FACWqjkW_qxCXSEoUD48-412">
          <mxGeometry x="-0.3455" y="-1" relative="1" as="geometry">
            <mxPoint y="10" as="offset" />
          </mxGeometry>
        </mxCell>
        <mxCell id="FACWqjkW_qxCXSEoUD48-414" value="A Service" style="text;html=1;strokeColor=none;fillColor=none;align=center;verticalAlign=middle;whiteSpace=wrap;rounded=0;" vertex="1" parent="1">
          <mxGeometry x="1072.25" y="1136" width="60" height="25" as="geometry" />
        </mxCell>
        <mxCell id="FACWqjkW_qxCXSEoUD48-415" style="edgeStyle=orthogonalEdgeStyle;rounded=0;orthogonalLoop=1;jettySize=auto;html=1;entryX=0.566;entryY=0.189;entryDx=0;entryDy=0;entryPerimeter=0;dashed=1;fontColor=#990000;strokeColor=default;" edge="1" parent="1" source="FACWqjkW_qxCXSEoUD48-416" target="FACWqjkW_qxCXSEoUD48-410">
          <mxGeometry relative="1" as="geometry" />
        </mxCell>
        <mxCell id="FACWqjkW_qxCXSEoUD48-416" value="B Service" style="text;html=1;strokeColor=none;fillColor=none;align=center;verticalAlign=middle;whiteSpace=wrap;rounded=0;" vertex="1" parent="1">
          <mxGeometry x="1192.25" y="1119.5" width="60" height="25" as="geometry" />
        </mxCell>
        <mxCell id="FACWqjkW_qxCXSEoUD48-417" value="C Service" style="text;html=1;strokeColor=none;fillColor=none;align=center;verticalAlign=middle;whiteSpace=wrap;rounded=0;" vertex="1" parent="1">
          <mxGeometry x="1312.25" y="1136" width="60" height="25" as="geometry" />
        </mxCell>
        <mxCell id="FACWqjkW_qxCXSEoUD48-418" style="edgeStyle=orthogonalEdgeStyle;rounded=0;orthogonalLoop=1;jettySize=auto;html=1;dashed=1;fontColor=#990000;strokeColor=default;" edge="1" parent="1" source="FACWqjkW_qxCXSEoUD48-420" target="FACWqjkW_qxCXSEoUD48-421">
          <mxGeometry relative="1" as="geometry" />
        </mxCell>
        <mxCell id="FACWqjkW_qxCXSEoUD48-419" value="Http Request" style="edgeLabel;html=1;align=center;verticalAlign=middle;resizable=0;points=[];fontSize=8;fontColor=#990000;" vertex="1" connectable="0" parent="FACWqjkW_qxCXSEoUD48-418">
          <mxGeometry x="-0.3091" relative="1" as="geometry">
            <mxPoint y="-12" as="offset" />
          </mxGeometry>
        </mxCell>
        <mxCell id="FACWqjkW_qxCXSEoUD48-420" value="D Service" style="text;html=1;strokeColor=none;fillColor=none;align=center;verticalAlign=middle;whiteSpace=wrap;rounded=0;" vertex="1" parent="1">
          <mxGeometry x="1072.25" y="1218.5" width="60" height="25" as="geometry" />
        </mxCell>
        <mxCell id="FACWqjkW_qxCXSEoUD48-421" value="E Service" style="text;html=1;strokeColor=none;fillColor=none;align=center;verticalAlign=middle;whiteSpace=wrap;rounded=0;" vertex="1" parent="1">
          <mxGeometry x="1192.25" y="1218.5" width="60" height="25" as="geometry" />
        </mxCell>
        <mxCell id="FACWqjkW_qxCXSEoUD48-422" style="edgeStyle=orthogonalEdgeStyle;rounded=0;orthogonalLoop=1;jettySize=auto;html=1;entryX=1;entryY=0.5;entryDx=0;entryDy=0;dashed=1;fontColor=#990000;strokeColor=default;" edge="1" parent="1" source="FACWqjkW_qxCXSEoUD48-424" target="FACWqjkW_qxCXSEoUD48-421">
          <mxGeometry relative="1" as="geometry" />
        </mxCell>
        <mxCell id="FACWqjkW_qxCXSEoUD48-423" value="Http Request" style="edgeLabel;html=1;align=center;verticalAlign=middle;resizable=0;points=[];fontSize=8;fontColor=#990000;" vertex="1" connectable="0" parent="FACWqjkW_qxCXSEoUD48-422">
          <mxGeometry x="-0.2768" y="1" relative="1" as="geometry">
            <mxPoint y="-13" as="offset" />
          </mxGeometry>
        </mxCell>
        <mxCell id="FACWqjkW_qxCXSEoUD48-424" value="F Service" style="text;html=1;strokeColor=none;fillColor=none;align=center;verticalAlign=middle;whiteSpace=wrap;rounded=0;" vertex="1" parent="1">
          <mxGeometry x="1312.25" y="1218.5" width="60" height="25" as="geometry" />
        </mxCell>
        <mxCell id="FACWqjkW_qxCXSEoUD48-425" value="&lt;b&gt;&lt;font color=&quot;#990000&quot;&gt;Cluster&lt;br&gt;&lt;/font&gt;&lt;/b&gt;" style="text;html=1;strokeColor=none;fillColor=none;align=left;verticalAlign=middle;whiteSpace=wrap;rounded=0;" vertex="1" parent="1">
          <mxGeometry x="1313.75" y="1069.5" width="65.41" height="14" as="geometry" />
        </mxCell>
        <mxCell id="FACWqjkW_qxCXSEoUD48-426" value="Http Request" style="edgeLabel;html=1;align=center;verticalAlign=middle;resizable=0;points=[];fontSize=8;fontColor=#990000;" vertex="1" connectable="0" parent="1">
          <mxGeometry x="1223.750000000001" y="1157.4978787878783" as="geometry" />
        </mxCell>
        <mxCell id="FACWqjkW_qxCXSEoUD48-428" value="Message Broker (RabbitMQ)" style="rounded=0;whiteSpace=wrap;html=1;shadow=0;labelBorderColor=none;fontSize=8;fontColor=#990000;opacity=50;" vertex="1" parent="1">
          <mxGeometry x="1520" y="992" width="240" height="74" as="geometry" />
        </mxCell>
      </root>
    </mxGraphModel>
  </diagram>
</mxfile>
